<?xml version="1.0" encoding="us-ascii" standalone="no"?><svg xmlns="http://www.w3.org/2000/svg" xmlns:xlink="http://www.w3.org/1999/xlink" contentStyleType="text/css" height="1286.4px" preserveAspectRatio="none" style="width:2099px;height:1286px;background:#FFFFFF;" version="1.1" viewBox="0 0 2099 1286" width="2099.2px" zoomAndPan="magnify"><defs/><g><rect fill="#7F96F4" height="77.225" rx="20" ry="20" style="stroke:#181818;stroke-width:2.4000000000000004;" width="185.6" x="744" y="603.3672"/><text fill="#000000" font-family="sans-serif" font-size="38.4" lengthAdjust="spacing" textLength="153.6" x="760" y="656.4922">&#21518;&#31471;&#24037;&#31243;</text><rect fill="#F1F1F1" height="58.3813" rx="20" ry="20" style="stroke:#181818;stroke-width:2.4000000000000004;" width="121.6" x="1009.6" y="180.7625"/><text fill="#000000" font-family="sans-serif" font-size="22.4" lengthAdjust="spacing" textLength="89.6" x="1025.6" y="218.4188">&#20844;&#20849;&#26381;&#21153;</text><rect fill="#F1F1F1" height="58.3813" rx="20" ry="20" style="stroke:#181818;stroke-width:2.4000000000000004;" width="121.6" x="1211.2" y="32"/><text fill="#000000" font-family="sans-serif" font-size="22.4" lengthAdjust="spacing" textLength="89.6" x="1227.2" y="69.6563">p2-user</text><path d="M1131.2,209.9531 L1147.2,209.9531 C1171.2,209.9531 1171.2,61.1906 1195.2,61.1906 L1211.2,61.1906 " fill="none" style="stroke:#181818;stroke-width:1.6000000000000003;"/><rect fill="#F1F1F1" height="58.3813" rx="20" ry="20" style="stroke:#181818;stroke-width:2.4000000000000004;" width="148.8" x="1211.2" y="122.3813"/><text fill="#000000" font-family="sans-serif" font-size="22.4" lengthAdjust="spacing" textLength="116.8" x="1227.2" y="160.0375">p2-system</text><path d="M1131.2,209.9531 L1147.2,209.9531 C1171.2,209.9531 1171.2,151.5719 1195.2,151.5719 L1211.2,151.5719 " fill="none" style="stroke:#181818;stroke-width:1.6000000000000003;"/><rect fill="#F1F1F1" height="58.3813" rx="20" ry="20" style="stroke:#181818;stroke-width:2.4000000000000004;" width="169.6" x="1211.2" y="212.7625"/><text fill="#000000" font-family="sans-serif" font-size="22.4" lengthAdjust="spacing" textLength="137.6" x="1227.2" y="250.4188">p2-resource</text><path d="M1131.2,209.9531 L1147.2,209.9531 C1171.2,209.9531 1171.2,241.9531 1195.2,241.9531 L1211.2,241.9531 " fill="none" style="stroke:#181818;stroke-width:1.6000000000000003;"/><rect fill="#F1F1F1" height="84.7625" rx="20" ry="20" style="stroke:#181818;stroke-width:2.4000000000000004;" width="481.6" x="1211.2" y="303.1438"/><text fill="#000000" font-family="sans-serif" font-size="22.4" lengthAdjust="spacing" textLength="137.6" x="1227.2" y="340.8">p2-interface</text><text fill="#C4C5CD" font-family="sans-serif" font-size="22.4" lengthAdjust="spacing" textLength="449.6" x="1227.2" y="367.1813">// &#20844;&#20849;&#26381;&#21153;&#30456;&#20851;&#30340;VO, BO, DO, enum&#31561;&#23450;&#20041;</text><path d="M1131.2,209.9531 L1147.2,209.9531 C1171.2,209.9531 1171.2,345.525 1195.2,345.525 L1211.2,345.525 " fill="none" style="stroke:#181818;stroke-width:1.6000000000000003;"/><path d="M929.6,641.9797 L945.6,641.9797 C969.6,641.9797 969.6,209.9531 993.6,209.9531 L1009.6,209.9531 " fill="none" style="stroke:#181818;stroke-width:1.6000000000000003;"/><rect fill="#F1F1F1" height="58.3813" rx="20" ry="20" style="stroke:#181818;stroke-width:2.4000000000000004;" width="121.6" x="1009.6" y="806.7422"/><text fill="#000000" font-family="sans-serif" font-size="22.4" lengthAdjust="spacing" textLength="89.6" x="1025.6" y="844.3984">&#20844;&#20849;&#32452;&#20214;</text><rect fill="#40C056" height="84.7625" rx="20" ry="20" style="stroke:#181818;stroke-width:2.4000000000000004;" width="409.6" x="1211.2" y="419.9063"/><text fill="#000000" font-family="sans-serif" font-size="22.4" lengthAdjust="spacing" textLength="134.4" x="1227.2" y="457.5625">common-all</text><text fill="#C4C5CD" font-family="sans-serif" font-size="22.4" lengthAdjust="spacing" textLength="377.6" x="1227.2" y="483.9438">// &#32452;&#21512;&#25152;&#26377;&#20381;&#36182;, &#21512;&#24182;&#20844;&#20849;&#32452;&#20214;&#23450;&#29256;&#26412;</text><path d="M1131.2,835.9328 L1147.2,835.9328 C1171.2,835.9328 1171.2,462.2875 1195.2,462.2875 L1211.2,462.2875 " fill="none" style="stroke:#181818;stroke-width:1.6000000000000003;"/><rect fill="#F1F1F1" height="84.7625" rx="20" ry="20" style="stroke:#181818;stroke-width:2.4000000000000004;" width="251.2" x="1211.2" y="536.6688"/><text fill="#000000" font-family="sans-serif" font-size="22.4" lengthAdjust="spacing" textLength="219.2" x="1227.2" y="574.325">common-document</text><text fill="#C4C5CD" font-family="sans-serif" font-size="22.4" lengthAdjust="spacing" textLength="118.4" x="1227.2" y="600.7063">// &#25991;&#26723;&#39046;&#22495;</text><path d="M1131.2,835.9328 L1147.2,835.9328 C1171.2,835.9328 1171.2,579.05 1195.2,579.05 L1211.2,579.05 " fill="none" style="stroke:#181818;stroke-width:1.6000000000000003;"/><rect fill="#F1F1F1" height="84.7625" rx="20" ry="20" style="stroke:#181818;stroke-width:2.4000000000000004;" width="584" x="1211.2" y="653.4313"/><text fill="#000000" font-family="sans-serif" font-size="22.4" lengthAdjust="spacing" textLength="161.6" x="1227.2" y="691.0875">common-hash</text><text fill="#C4C5CD" font-family="sans-serif" font-size="22.4" lengthAdjust="spacing" textLength="552" x="1227.2" y="717.4688">// &#21152;&#35299;&#23494;, &#25688;&#35201;, &#24120;&#29992;&#30340;encode/decode&#35692;&#22914;base64&#31561;</text><text fill="#000000" font-family="sans-serif" font-size="22.4" lengthAdjust="spacing" textLength="68.8" x="1880" y="674.6969">crypto</text><path d="M1795.2,695.8125 L1811.2,695.8125 C1835.2,695.8125 1835.2,666.2313 1859.2,666.2313 L1875.2,666.2313 " fill="none" style="stroke:#181818;stroke-width:1.6000000000000003;"/><text fill="#000000" font-family="sans-serif" font-size="22.4" lengthAdjust="spacing" textLength="67.2" x="1880" y="704.2781">digest</text><path d="M1795.2,695.8125 L1811.2,695.8125 C1835.2,695.8125 1835.2,695.8125 1859.2,695.8125 L1875.2,695.8125 " fill="none" style="stroke:#181818;stroke-width:1.6000000000000003;"/><text fill="#000000" font-family="sans-serif" font-size="22.4" lengthAdjust="spacing" textLength="171.2" x="1880" y="733.8594">encode/decode</text><path d="M1795.2,695.8125 L1811.2,695.8125 C1835.2,695.8125 1835.2,725.3938 1859.2,725.3938 L1875.2,725.3938 " fill="none" style="stroke:#181818;stroke-width:1.6000000000000003;"/><path d="M1131.2,835.9328 L1147.2,835.9328 C1171.2,835.9328 1171.2,695.8125 1195.2,695.8125 L1211.2,695.8125 " fill="none" style="stroke:#181818;stroke-width:1.6000000000000003;"/><rect fill="#F1F1F1" height="111.1438" rx="20" ry="20" style="stroke:#181818;stroke-width:2.4000000000000004;" width="403.2" x="1211.2" y="772.575"/><text fill="#000000" font-family="sans-serif" font-size="22.4" lengthAdjust="spacing" textLength="267.2" x="1227.2" y="810.2313">common-service-helper</text><text fill="#C4C5CD" font-family="sans-serif" font-size="22.4" lengthAdjust="spacing" textLength="371.2" x="1227.2" y="836.6125">// &#32477;&#23545;&#26159;&#30452;&#25509;&#26381;&#21153;&#20110;&#19994;&#21153;&#30340;&#24110;&#21161;&#26041;&#27861;.</text><text fill="#C4C5CD" font-family="sans-serif" font-size="22.4" lengthAdjust="spacing" textLength="355.2" x="1227.2" y="862.9938">// &#21152;&#36895;&#24320;&#21457;,&#32479;&#19968;&#20837;&#21475;,&#25552;&#21319;&#23433;&#20840;&#31561;&#31561;</text><text fill="#000000" font-family="sans-serif" font-size="22.4" lengthAdjust="spacing" textLength="174.4" x="1699.2" y="777.45">validation&#36741;&#21161;&#31867;</text><path d="M1614.4,828.1469 L1630.4,828.1469 C1654.4,828.1469 1654.4,768.9844 1678.4,768.9844 L1694.4,768.9844 " fill="none" style="stroke:#181818;stroke-width:1.6000000000000003;"/><text fill="#000000" font-family="sans-serif" font-size="22.4" lengthAdjust="spacing" textLength="156.8" x="1699.2" y="807.0313">&#33258;&#21160;&#36716;&#25442;&#36741;&#21161;&#31867;</text><path d="M1614.4,828.1469 L1630.4,828.1469 C1654.4,828.1469 1654.4,798.5656 1678.4,798.5656 L1694.4,798.5656 " fill="none" style="stroke:#181818;stroke-width:1.6000000000000003;"/><text fill="#000000" font-family="sans-serif" font-size="22.4" lengthAdjust="spacing" textLength="224" x="1699.2" y="836.6125">&#24213;&#23618;&#36164;&#28304;&#30340;&#32479;&#19968;&#20837;&#21475;&#31561;</text><path d="M1614.4,828.1469 L1630.4,828.1469 C1654.4,828.1469 1654.4,828.1469 1678.4,828.1469 L1694.4,828.1469 " fill="none" style="stroke:#181818;stroke-width:1.6000000000000003;"/><text fill="#000000" font-family="sans-serif" font-size="22.4" lengthAdjust="spacing" textLength="380.8" x="1699.2" y="866.1938">&#21152;&#36895;&#24320;&#21457;&#30340;&#22768;&#26126;&#24335;&#32534;&#31243;&#30340;&#20837;&#21475;&#37117;&#22312;&#36825;&#37324;</text><path d="M1614.4,828.1469 L1630.4,828.1469 C1654.4,828.1469 1654.4,857.7281 1678.4,857.7281 L1694.4,857.7281 " fill="none" style="stroke:#181818;stroke-width:1.6000000000000003;"/><text fill="#000000" font-family="sans-serif" font-size="22.4" lengthAdjust="spacing" textLength="19.2" x="1699.2" y="895.775">...</text><path d="M1614.4,828.1469 L1630.4,828.1469 C1654.4,828.1469 1654.4,887.3094 1678.4,887.3094 L1694.4,887.3094 " fill="none" style="stroke:#181818;stroke-width:1.6000000000000003;"/><path d="M1131.2,835.9328 L1147.2,835.9328 C1171.2,835.9328 1171.2,828.1469 1195.2,828.1469 L1211.2,828.1469 " fill="none" style="stroke:#181818;stroke-width:1.6000000000000003;"/><rect fill="#F1F1F1" height="84.7625" rx="20" ry="20" style="stroke:#181818;stroke-width:2.4000000000000004;" width="513.6" x="1211.2" y="918.1"/><text fill="#000000" font-family="sans-serif" font-size="22.4" lengthAdjust="spacing" textLength="160" x="1227.2" y="955.7563">common-base</text><text fill="#C4C5CD" font-family="sans-serif" font-size="22.4" lengthAdjust="spacing" textLength="481.6" x="1227.2" y="982.1375">// enum, exception&#31561;&#36866;&#21512;&#29992;&#20570;&#22522;&#30784;&#20381;&#36182;&#30340;&#23450;&#20041;</text><path d="M1131.2,835.9328 L1147.2,835.9328 C1171.2,835.9328 1171.2,960.4813 1195.2,960.4813 L1211.2,960.4813 " fill="none" style="stroke:#181818;stroke-width:1.6000000000000003;"/><rect fill="#F1F1F1" height="84.7625" rx="20" ry="20" style="stroke:#181818;stroke-width:2.4000000000000004;" width="233.6" x="1211.2" y="1034.8625"/><text fill="#000000" font-family="sans-serif" font-size="22.4" lengthAdjust="spacing" textLength="201.6" x="1227.2" y="1072.5188">common-protocol</text><text fill="#C4C5CD" font-family="sans-serif" font-size="22.4" lengthAdjust="spacing" textLength="118.4" x="1227.2" y="1098.9">// &#21327;&#35758;&#39046;&#22495;</text><path d="M1131.2,835.9328 L1147.2,835.9328 C1171.2,835.9328 1171.2,1077.2438 1195.2,1077.2438 L1211.2,1077.2438 " fill="none" style="stroke:#181818;stroke-width:1.6000000000000003;"/><rect fill="#F1F1F1" height="84.7625" rx="20" ry="20" style="stroke:#181818;stroke-width:2.4000000000000004;" width="240" x="1211.2" y="1151.625"/><text fill="#000000" font-family="sans-serif" font-size="22.4" lengthAdjust="spacing" textLength="155.2" x="1227.2" y="1189.2813">common-utils</text><text fill="#C4C5CD" font-family="sans-serif" font-size="22.4" lengthAdjust="spacing" textLength="208" x="1227.2" y="1215.6625">// &#19994;&#21153;&#26080;&#20851;&#30340;&#32431;&#24037;&#20855;</text><text fill="#000000" font-family="sans-serif" font-size="22.4" lengthAdjust="spacing" textLength="105.6" x="1536" y="1143.3094">date_utils</text><path d="M1451.2,1194.0063 L1467.2,1194.0063 C1491.2,1194.0063 1491.2,1134.8438 1515.2,1134.8438 L1531.2,1134.8438 " fill="none" style="stroke:#181818;stroke-width:1.6000000000000003;"/><text fill="#000000" font-family="sans-serif" font-size="22.4" lengthAdjust="spacing" textLength="94.4" x="1536" y="1172.8906">reg_utils</text><path d="M1451.2,1194.0063 L1467.2,1194.0063 C1491.2,1194.0063 1491.2,1164.425 1515.2,1164.425 L1531.2,1164.425 " fill="none" style="stroke:#181818;stroke-width:1.6000000000000003;"/><text fill="#000000" font-family="sans-serif" font-size="22.4" lengthAdjust="spacing" textLength="147.2" x="1536" y="1202.4719">network_utils</text><path d="M1451.2,1194.0063 L1467.2,1194.0063 C1491.2,1194.0063 1491.2,1194.0063 1515.2,1194.0063 L1531.2,1194.0063 " fill="none" style="stroke:#181818;stroke-width:1.6000000000000003;"/><text fill="#000000" font-family="sans-serif" font-size="22.4" lengthAdjust="spacing" textLength="129.6" x="1536" y="1232.0531">object_copy</text><path d="M1451.2,1194.0063 L1467.2,1194.0063 C1491.2,1194.0063 1491.2,1223.5875 1515.2,1223.5875 L1531.2,1223.5875 " fill="none" style="stroke:#181818;stroke-width:1.6000000000000003;"/><text fill="#000000" font-family="sans-serif" font-size="22.4" lengthAdjust="spacing" textLength="19.2" x="1536" y="1261.6344">...</text><path d="M1451.2,1194.0063 L1467.2,1194.0063 C1491.2,1194.0063 1491.2,1253.1688 1515.2,1253.1688 L1531.2,1253.1688 " fill="none" style="stroke:#181818;stroke-width:1.6000000000000003;"/><path d="M1131.2,835.9328 L1147.2,835.9328 C1171.2,835.9328 1171.2,1194.0063 1195.2,1194.0063 L1211.2,1194.0063 " fill="none" style="stroke:#181818;stroke-width:1.6000000000000003;"/><path d="M929.6,641.9797 L945.6,641.9797 C969.6,641.9797 969.6,835.9328 993.6,835.9328 L1009.6,835.9328 " fill="none" style="stroke:#181818;stroke-width:1.6000000000000003;"/><rect fill="#F1F1F1" height="58.3813" rx="20" ry="20" style="stroke:#181818;stroke-width:2.4000000000000004;" width="144" x="520" y="334.8922"/><text fill="#000000" font-family="sans-serif" font-size="22.4" lengthAdjust="spacing" textLength="112" x="536" y="372.5484">&#20803;&#25968;&#25454;&#24037;&#31243;</text><rect fill="#40C056" height="58.3813" rx="20" ry="20" style="stroke:#181818;stroke-width:2.4000000000000004;" width="179.2" x="260.8" y="334.8922"/><text fill="#000000" font-family="sans-serif" font-size="22.4" lengthAdjust="spacing" textLength="147.2" x="276.8" y="372.5484">p2-metabase</text><path d="M520,364.0828 L504,364.0828 C480,364.0828 480,364.0828 456,364.0828 L440,364.0828 " fill="none" style="stroke:#181818;stroke-width:1.6000000000000003;"/><path d="M744,641.9797 L728,641.9797 C704,641.9797 704,364.0828 680,364.0828 L664,364.0828 " fill="none" style="stroke:#181818;stroke-width:1.6000000000000003;"/><rect fill="#F1F1F1" height="58.3813" rx="20" ry="20" style="stroke:#181818;stroke-width:2.4000000000000004;" width="144" x="520" y="528.8453"/><text fill="#000000" font-family="sans-serif" font-size="22.4" lengthAdjust="spacing" textLength="112" x="536" y="566.5016">&#23383;&#33410;&#30721;&#25171;&#26729;</text><rect fill="#F1F1F1" height="58.3813" rx="20" ry="20" style="stroke:#181818;stroke-width:2.4000000000000004;" width="174.4" x="265.6" y="425.2734"/><text fill="#000000" font-family="sans-serif" font-size="22.4" lengthAdjust="spacing" textLength="142.4" x="281.6" y="462.9297">asm-logging</text><path d="M520,558.0359 L504,558.0359 C480,558.0359 480,454.4641 456,454.4641 L440,454.4641 " fill="none" style="stroke:#181818;stroke-width:1.6000000000000003;"/><rect fill="#F1F1F1" height="84.7625" rx="20" ry="20" style="stroke:#181818;stroke-width:2.4000000000000004;" width="424" x="16" y="515.6547"/><text fill="#000000" font-family="sans-serif" font-size="22.4" lengthAdjust="spacing" textLength="392" x="32" y="553.3109">asm-middleware-adapter-message</text><text fill="#000000" font-family="sans-serif" font-size="22.4" lengthAdjust="spacing" textLength="208" x="32" y="579.6922">// &#28040;&#24687;&#20013;&#38388;&#20214;&#36866;&#37197;&#22120;</text><path d="M520,558.0359 L504,558.0359 C480,558.0359 480,558.0359 456,558.0359 L440,558.0359 " fill="none" style="stroke:#181818;stroke-width:1.6000000000000003;"/><rect fill="#F1F1F1" height="58.3813" rx="20" ry="20" style="stroke:#181818;stroke-width:2.4000000000000004;" width="51.2" x="388.8" y="632.4172"/><text fill="#000000" font-family="sans-serif" font-size="22.4" lengthAdjust="spacing" textLength="19.2" x="404.8" y="670.0734">...</text><path d="M520,558.0359 L504,558.0359 C480,558.0359 480,661.6078 456,661.6078 L440,661.6078 " fill="none" style="stroke:#181818;stroke-width:1.6000000000000003;"/><path d="M744,641.9797 L728,641.9797 C704,641.9797 704,558.0359 680,558.0359 L664,558.0359 " fill="none" style="stroke:#181818;stroke-width:1.6000000000000003;"/><rect fill="#F1F1F1" height="84.7625" rx="20" ry="20" style="stroke:#181818;stroke-width:2.4000000000000004;" width="129.6" x="534.4" y="793.5516"/><text fill="#000000" font-family="sans-serif" font-size="22.4" lengthAdjust="spacing" textLength="89.6" x="550.4" y="831.2078">gateway</text><text fill="#E31313" font-family="sans-serif" font-size="22.4" lengthAdjust="spacing" textLength="91.2" x="556.8" y="857.5891">// jdk17</text><rect fill="#F1F1F1" height="58.3813" rx="20" ry="20" style="stroke:#181818;stroke-width:2.4000000000000004;" width="184" x="270.4" y="761.5516"/><text fill="#000000" font-family="sans-serif" font-size="22.4" lengthAdjust="spacing" textLength="152" x="286.4" y="799.2078">gateway-auth</text><text fill="#000000" font-family="sans-serif" font-size="22.4" lengthAdjust="spacing" textLength="158.4" x="27.2" y="730.0547">authentication</text><text fill="#C4C5CD" font-family="sans-serif" font-size="22.4" lengthAdjust="spacing" textLength="118.4" x="27.2" y="756.4359">// &#20320;&#26159;&#35841;&#65311;</text><path d="M270.4,790.7422 L254.4,790.7422 C230.4,790.7422 230.4,734.7797 206.4,734.7797 L190.4,734.7797 " fill="none" style="stroke:#181818;stroke-width:1.6000000000000003;"/><text fill="#000000" font-family="sans-serif" font-size="22.4" lengthAdjust="spacing" text-decoration="line-through" textLength="148.8" x="22.4" y="786.0172">authorization</text><text fill="#C4C5CD" font-family="sans-serif" font-size="22.4" lengthAdjust="spacing" textLength="163.2" x="22.4" y="812.3984">// &#20320;&#33021;&#24178;&#20160;&#20040;&#65311;</text><path d="M270.4,790.7422 L254.4,790.7422 C230.4,790.7422 230.4,790.7422 206.4,790.7422 L190.4,790.7422 " fill="none" style="stroke:#181818;stroke-width:1.6000000000000003;"/><text fill="#000000" font-family="sans-serif" font-size="22.4" lengthAdjust="spacing" textLength="124.8" x="22.4" y="841.9797">Credentials</text><text fill="#C4C5CD" font-family="sans-serif" font-size="22.4" lengthAdjust="spacing" textLength="163.2" x="22.4" y="868.3609">// &#20320;&#22914;&#20309;&#35777;&#26126;&#65311;</text><path d="M270.4,790.7422 L254.4,790.7422 C230.4,790.7422 230.4,846.7047 206.4,846.7047 L190.4,846.7047 " fill="none" style="stroke:#181818;stroke-width:1.6000000000000003;"/><path d="M534.4,835.9328 L518.4,835.9328 C494.4,835.9328 494.4,790.7422 470.4,790.7422 L454.4,790.7422 " fill="none" style="stroke:#181818;stroke-width:1.6000000000000003;"/><rect fill="#F1F1F1" height="58.3813" rx="20" ry="20" style="stroke:#181818;stroke-width:2.4000000000000004;" width="204.8" x="249.6" y="890.6859"/><text fill="#000000" font-family="sans-serif" font-size="22.4" lengthAdjust="spacing" textLength="172.8" x="265.6" y="928.3422">gateway-routes</text><path d="M534.4,835.9328 L518.4,835.9328 C494.4,835.9328 494.4,919.8766 470.4,919.8766 L454.4,919.8766 " fill="none" style="stroke:#181818;stroke-width:1.6000000000000003;"/><path d="M744,641.9797 L728,641.9797 C704,641.9797 704,835.9328 680,835.9328 L664,835.9328 " fill="none" style="stroke:#181818;stroke-width:1.6000000000000003;"/><!--SRC=[tLTRRnD757xVNp5L-W1HV4amePWeed48Kae0bKiVMcHDTWTxoUxETcSsmNboGapYjBcWDW52K18YQ6XpWN9pRlJFU7RNJ_qBFUjBigwm10XLgBPMtZCpvvmvtxbyycd6iSLrrL1qR4hI5weXQxP2KEGA8nQBt5GnrMmQ6SIsnYEgmTHKcaVI12jXrTOrIMh-_aivoGOoIUqQwc3gC8ctnJh5xBJxnvPuyzXT-qbgRaOYjovopvt5AJ6v0d8pCjj2DjYllRCCuqIlIHPXrBPauijna5M34-iwXeKEcMhKYliUqrYXGqcjCnAfi-u-A8ZS2tTXxEg55jG5JpSynB1rToClDXUAs_bJXnToTyUAkwzzDtuGAGipTYqkKrsdHWXhMWDte2Lc9vnyrbdC5zy-z5xDjo1O4DklWrR1cPkVS1RNJvN3g5fLg6phnE0DJ3lpuyxAQkdHRR6qLAUNnYpTAFh9PU-tLR5rkmKvT-vvJqRWDeM2- -iQW40CcIeaeX3_nzjO5qz6-p4ZxJ50eso_EObaAsDoMXKKDKKOhmfrsi7RGEO6LPc4qaGp8OcDO7eejhQTUrlkWvVEzEDAUeexqyN2Wf-dXJ5Hs1IJJvtvRUV5NBXnSANiajZBYfaxBUxkKh6G5Rd7OcQrnPcP5LFZOZClSciGJI2WGQof2kOgDRotEV3WFj-jxdZZlul9DMz_tPbwzEyziJCddezwhyQSdLcuND0NsAuT2bp7Zs3rcNDlMkpDk7lpKEd-IbcXT6jVBAvvVzqlZVzSrGo7mq44_Imq2DalLYZPcp8n_HZ0UIax2lK56HKZ2s9fnrt9LihEztTGqWUcJOjo2fOR8JerusrklgF4RAvgh85I9MVEtULARxaxVc-Bt9iQv00tILOCL1OiaggJ3SA7g3LGjqRxRn2P9sLgPW8WIHgvpX5JeU8gZNhBcNlcJ6qU39D0h_h3GYSSbz7q3s_SzIP7tUKH9_-Bi_AqF4ymqqCQJQLK8tKWwwgYQ6G8MoI45Mp2T04pZE4K-S7mk_3rX3EoLInibEw-X4u6-4kvAN5_hQnVIMGy1H4FuKm0htwDKYMfT2AmS4CPQ3rH1WTL3uQmpTELCEF-Aym0LIuNQIF8zvUXTxnd8t_lBLLXZdUmJb-NMkfmMRKZmZeRgtjGXTj_5dUpnUs9W964HHJVEswSxVrb61J5_JblQmJgkwPx48f5RKwO99qcG1eruZXTpoF09AQ5Kpf6dD1Xn2sRIBKF6r0D4rjOXp9X9ZKOwQkWtqKqElIrPT6XYiBXmKlaHnl64JaBliqkgcIwi3oG0i5G4du8gAcd_3aP3IXTLhb6UgZ1Bm4jeTQsmDPvoWCxKSddiQOJFIVRUsB_7Oqr9MA9uudkJqLXJR5e8dgy_LqC5l3qATahOFQzc2iOyEV2MdNGV0nZrGVrlsUhGBYVcgc2IBuNImKKFY-6ghNYvqDGJMUEjSBtezaf2FK7CbEzwlkpKhtUXpFIHGqR_4hVEJG8VsJWJgWrt1PjEnPkZHxvZYYerzQ04r3RiVZnM3nw0YKkNKR-_b7foDcBvr1bTiDeOTnI-sq_gADIBnx4w5iRxgcJEBfW4gEt-vlQ0ZfZ3AeMDSeJilTgt-61zbYeI-L0OXPS1Ltjaxh9TV__56Z0a8B4nz6LopsXhwHps4ZPaEKuz9QK07RZLYQE4kV_0G00]--></g></svg>