<?xml version="1.0" encoding="us-ascii" standalone="no"?><svg xmlns="http://www.w3.org/2000/svg" xmlns:xlink="http://www.w3.org/1999/xlink" contentStyleType="text/css" height="905px" preserveAspectRatio="none" style="width:555px;height:905px;background:#FFFFFF;" version="1.1" viewBox="0 0 555 905" width="555px" zoomAndPan="magnify"><defs/><g><text fill="#000000" font-family="sans-serif" font-size="14" font-weight="bold" lengthAdjust="spacing" textLength="168" x="192" y="33.5352">&#35774;&#22791;&#24615;&#33021;&#23454;&#26102;&#30417;&#25511;&#25968;&#20540;&#35745;&#31639;</text><rect fill="none" height="21.1992" style="stroke:none;stroke-width:1.0;" width="522" x="15" y="49.7852"/><rect fill="#ADD8E6" height="844.0586" style="stroke:#ADD8E6;stroke-width:1.0;" width="174" x="15" y="49.7852"/><ellipse cx="103" cy="85.9844" fill="#222222" rx="10" ry="10" style="stroke:#222222;stroke-width:1.0;"/><rect fill="#F1F1F1" height="34.1328" rx="12.5" ry="12.5" style="stroke:#181818;stroke-width:0.5;" width="116" x="45" y="115.9844"/><text fill="#000000" font-family="sans-serif" font-size="12" lengthAdjust="spacing" textLength="96" x="55" y="137.5859">&#24320;&#22987;&#35774;&#22791;&#23454;&#26102;&#30417;&#25511;</text><rect fill="#F1F1F1" height="34.1328" rx="12.5" ry="12.5" style="stroke:#181818;stroke-width:0.5;" width="164" x="21" y="170.1172"/><text fill="#000000" font-family="sans-serif" font-size="12" lengthAdjust="spacing" textLength="144" x="31" y="191.7188">&#26657;&#39564;&#21442;&#25968;&#21512;&#27861;&#21644;&#20197;&#21450;&#23384;&#22312;&#24615;</text><rect fill="#FF6347" height="34.1328" rx="12.5" ry="12.5" style="stroke:#181818;stroke-width:0.5;" width="120" x="43" y="224.25"/><text fill="#000000" font-family="sans-serif" font-size="12" lengthAdjust="spacing" textLength="100" x="53" y="245.8516">V3.1&#34917;&#20840;&#25351;&#26631;&#21464;&#37327;</text><rect fill="#F1F1F1" height="34.1328" rx="12.5" ry="12.5" style="stroke:#181818;stroke-width:0.5;" width="92" x="57" y="278.3828"/><text fill="#000000" font-family="sans-serif" font-size="12" lengthAdjust="spacing" textLength="72" x="67" y="299.9844">&#26597;&#35810;&#23454;&#26102;&#25968;&#25454;</text><rect fill="#F1F1F1" height="34.1328" style="stroke:#181818;stroke-width:0.5;" width="116" x="45" y="332.5156"/><line style="stroke:#181818;stroke-width:0.5;" x1="50" x2="50" y1="332.5156" y2="366.6484"/><line style="stroke:#181818;stroke-width:0.5;" x1="156" x2="156" y1="332.5156" y2="366.6484"/><text fill="#000000" font-family="sans-serif" font-size="12" lengthAdjust="spacing" textLength="96" x="55" y="354.1172">&#24320;&#22987;&#32858;&#21512;&#22522;&#30784;&#25351;&#26631;</text><rect fill="#F1F1F1" height="34.1328" style="stroke:#181818;stroke-width:0.5;" width="92" x="57" y="494.9141"/><line style="stroke:#181818;stroke-width:0.5;" x1="62" x2="62" y1="494.9141" y2="529.0469"/><line style="stroke:#181818;stroke-width:0.5;" x1="144" x2="144" y1="494.9141" y2="529.0469"/><text fill="#000000" font-family="sans-serif" font-size="12" lengthAdjust="spacing" textLength="72" x="67" y="516.5156">&#24320;&#22987;&#35745;&#31639;&#25351;&#26631;</text><rect fill="#F1F1F1" height="34.1328" rx="12.5" ry="12.5" style="stroke:#181818;stroke-width:0.5;" width="44" x="81" y="819.7109"/><text fill="#000000" font-family="sans-serif" font-size="12" lengthAdjust="spacing" textLength="24" x="91" y="841.3125">&#32467;&#26524;</text><ellipse cx="103" cy="883.8438" fill="none" rx="10" ry="10" style="stroke:#222222;stroke-width:1.5;"/><line style="stroke:#222222;stroke-width:2.5;" x1="96.8128" x2="109.1872" y1="877.6566" y2="890.0309"/><line style="stroke:#222222;stroke-width:2.5;" x1="109.1872" x2="96.8128" y1="877.6566" y2="890.0309"/><line style="stroke:#000000;stroke-width:1.5;" x1="15" x2="15" y1="49.7852" y2="893.8438"/><rect fill="#FFD700" height="844.0586" style="stroke:#FFD700;stroke-width:1.0;" width="160" x="189" y="49.7852"/><rect fill="#F1F1F1" height="34.1328" rx="12.5" ry="12.5" style="stroke:#181818;stroke-width:0.5;" width="68" x="236" y="386.6484"/><text fill="#000000" font-family="sans-serif" font-size="12" lengthAdjust="spacing" textLength="48" x="246" y="408.25">&#25968;&#25454;&#28165;&#27927;</text><rect fill="#F1F1F1" height="34.1328" rx="12.5" ry="12.5" style="stroke:#181818;stroke-width:0.5;" width="150" x="195" y="440.7813"/><text fill="#000000" font-family="sans-serif" font-size="12" lengthAdjust="spacing" textLength="130" x="205" y="462.3828">&#27979;&#37327;&#23545;&#35937;+&#37319;&#38598;&#32467;&#26463;&#26102;&#38388;</text><line style="stroke:#000000;stroke-width:1.5;" x1="189" x2="189" y1="49.7852" y2="893.8438"/><rect fill="#F5DEB3" height="844.0586" style="stroke:#F5DEB3;stroke-width:1.0;" width="186" x="349" y="49.7852"/><rect fill="#F1F1F1" height="34.1328" rx="12.5" ry="12.5" style="stroke:#181818;stroke-width:0.5;" width="68" x="409" y="549.0469"/><text fill="#000000" font-family="sans-serif" font-size="12" lengthAdjust="spacing" textLength="48" x="419" y="570.6484">&#20381;&#36182;&#20998;&#26512;</text><rect fill="#F1F1F1" height="34.1328" rx="12.5" ry="12.5" style="stroke:#181818;stroke-width:0.5;" width="68" x="409" y="603.1797"/><text fill="#000000" font-family="sans-serif" font-size="12" lengthAdjust="spacing" textLength="48" x="419" y="624.7813">&#32570;&#30465;&#20002;&#24323;</text><rect fill="#F1F1F1" height="34.1328" rx="12.5" ry="12.5" style="stroke:#181818;stroke-width:0.5;" width="176" x="355" y="657.3125"/><text fill="#000000" font-family="sans-serif" font-size="12" lengthAdjust="spacing" textLength="156" x="365" y="678.9141">&#26681;&#25454;&#25351;&#26631;&#30340;&#25968;&#23398;&#20844;&#24335;&#35745;&#31639;&#32467;&#26524;</text><rect fill="#F1F1F1" height="34.1328" rx="12.5" ry="12.5" style="stroke:#181818;stroke-width:0.5;" width="92" x="397" y="711.4453"/><text fill="#000000" font-family="sans-serif" font-size="12" lengthAdjust="spacing" textLength="72" x="407" y="733.0469">&#20844;&#24335;&#38750;&#27861;&#20002;&#24323;</text><rect fill="#F1F1F1" height="34.1328" rx="12.5" ry="12.5" style="stroke:#181818;stroke-width:0.5;" width="112" x="387" y="765.5781"/><text fill="#000000" font-family="sans-serif" font-size="12" lengthAdjust="spacing" textLength="92" x="397" y="787.1797">NaN/Infinity&#20002;&#24323;</text><line style="stroke:#000000;stroke-width:1.5;" x1="349" x2="349" y1="49.7852" y2="893.8438"/><line style="stroke:#000000;stroke-width:1.5;" x1="535" x2="535" y1="49.7852" y2="893.8438"/><line style="stroke:#181818;stroke-width:1.0;" x1="103" x2="103" y1="95.9844" y2="115.9844"/><polygon fill="#181818" points="99,105.9844,103,115.9844,107,105.9844,103,109.9844" style="stroke:#181818;stroke-width:1.0;"/><line style="stroke:#181818;stroke-width:1.0;" x1="103" x2="103" y1="150.1172" y2="170.1172"/><polygon fill="#181818" points="99,160.1172,103,170.1172,107,160.1172,103,164.1172" style="stroke:#181818;stroke-width:1.0;"/><line style="stroke:#181818;stroke-width:1.0;" x1="103" x2="103" y1="204.25" y2="224.25"/><polygon fill="#181818" points="99,214.25,103,224.25,107,214.25,103,218.25" style="stroke:#181818;stroke-width:1.0;"/><line style="stroke:#181818;stroke-width:1.0;" x1="103" x2="103" y1="258.3828" y2="278.3828"/><polygon fill="#181818" points="99,268.3828,103,278.3828,107,268.3828,103,272.3828" style="stroke:#181818;stroke-width:1.0;"/><line style="stroke:#181818;stroke-width:1.0;" x1="103" x2="103" y1="312.5156" y2="332.5156"/><polygon fill="#181818" points="99,322.5156,103,332.5156,107,322.5156,103,326.5156" style="stroke:#181818;stroke-width:1.0;"/><line style="stroke:#181818;stroke-width:1.0;" x1="103" x2="103" y1="853.8438" y2="873.8438"/><polygon fill="#181818" points="99,863.8438,103,873.8438,107,863.8438,103,867.8438" style="stroke:#181818;stroke-width:1.0;"/><line style="stroke:#181818;stroke-width:1.0;" x1="270" x2="270" y1="420.7813" y2="440.7813"/><polygon fill="#181818" points="266,430.7813,270,440.7813,274,430.7813,270,434.7813" style="stroke:#181818;stroke-width:1.0;"/><line style="stroke:#181818;stroke-width:1.0;" x1="443" x2="443" y1="583.1797" y2="603.1797"/><polygon fill="#181818" points="439,593.1797,443,603.1797,447,593.1797,443,597.1797" style="stroke:#181818;stroke-width:1.0;"/><line style="stroke:#181818;stroke-width:1.0;" x1="443" x2="443" y1="637.3125" y2="657.3125"/><polygon fill="#181818" points="439,647.3125,443,657.3125,447,647.3125,443,651.3125" style="stroke:#181818;stroke-width:1.0;"/><line style="stroke:#181818;stroke-width:1.0;" x1="443" x2="443" y1="691.4453" y2="711.4453"/><polygon fill="#181818" points="439,701.4453,443,711.4453,447,701.4453,443,705.4453" style="stroke:#181818;stroke-width:1.0;"/><line style="stroke:#181818;stroke-width:1.0;" x1="443" x2="443" y1="745.5781" y2="765.5781"/><polygon fill="#181818" points="439,755.5781,443,765.5781,447,755.5781,443,759.5781" style="stroke:#181818;stroke-width:1.0;"/><line style="stroke:#181818;stroke-width:1.0;" x1="103" x2="103" y1="366.6484" y2="371.6484"/><line style="stroke:#181818;stroke-width:1.0;" x1="103" x2="270" y1="371.6484" y2="371.6484"/><line style="stroke:#181818;stroke-width:1.0;" x1="270" x2="270" y1="371.6484" y2="386.6484"/><polygon fill="#181818" points="266,376.6484,270,386.6484,274,376.6484,270,380.6484" style="stroke:#181818;stroke-width:1.0;"/><line style="stroke:#181818;stroke-width:1.0;" x1="270" x2="270" y1="474.9141" y2="479.9141"/><line style="stroke:#181818;stroke-width:1.0;" x1="270" x2="103" y1="479.9141" y2="479.9141"/><line style="stroke:#181818;stroke-width:1.0;" x1="103" x2="103" y1="479.9141" y2="494.9141"/><polygon fill="#181818" points="99,484.9141,103,494.9141,107,484.9141,103,488.9141" style="stroke:#181818;stroke-width:1.0;"/><line style="stroke:#181818;stroke-width:1.0;" x1="103" x2="103" y1="529.0469" y2="534.0469"/><line style="stroke:#181818;stroke-width:1.0;" x1="103" x2="443" y1="534.0469" y2="534.0469"/><line style="stroke:#181818;stroke-width:1.0;" x1="443" x2="443" y1="534.0469" y2="549.0469"/><polygon fill="#181818" points="439,539.0469,443,549.0469,447,539.0469,443,543.0469" style="stroke:#181818;stroke-width:1.0;"/><line style="stroke:#181818;stroke-width:1.0;" x1="443" x2="443" y1="799.7109" y2="804.7109"/><line style="stroke:#181818;stroke-width:1.0;" x1="443" x2="103" y1="804.7109" y2="804.7109"/><line style="stroke:#181818;stroke-width:1.0;" x1="103" x2="103" y1="804.7109" y2="819.7109"/><polygon fill="#181818" points="99,809.7109,103,819.7109,107,809.7109,103,813.7109" style="stroke:#181818;stroke-width:1.0;"/><text fill="#000000" font-family="sans-serif" font-size="18" lengthAdjust="spacing" textLength="72" x="66" y="67.1875">&#25511;&#21046;&#21333;&#20803;</text><text fill="#000000" font-family="sans-serif" font-size="18" lengthAdjust="spacing" textLength="72" x="233" y="67.1875">&#32858;&#21512;&#21333;&#20803;</text><text fill="#000000" font-family="sans-serif" font-size="18" lengthAdjust="spacing" textLength="72" x="406" y="67.1875">&#35745;&#31639;&#21333;&#20803;</text><!--SRC=[NP5BJzj058NtyokCM5R2ghgBTrMbgb95DmNMqtW88pcsXCTIaRm8XE08GfssIeCWBwEcGLKn81xYuV9hSiVsls2SYQEMMSuzvpjpxinHisWuEb7K9Pkis-fdYYt3iTGtLj4f4vFPweTFDjKfDfLbx1XCfQPDIsjCNIDONw1EsK08pUbabPf4AJ93SUVVP_FNXaDS_cK4zHlORq6jwivKk5GIghUMeRl9vY4qwyy5HPnXLaG2SvCmYCDsha2CCeCeIVW8FprU6INLln3sUFicFlegmdZh72gHj20aNeDiXjSPAa1KWT6UjFrhq5213uBqTmFyhSpShFFB5dnhZ1-6uE_2wG5qJaICXkO_McNChCBoguMNIJ24sWblU7pWWN-GUdw6wG-JisF95YI-7sgpM5coVny75UaIHSGIa29EGOhvROrVjRNfrVMUWCBPNN8Hl4WzBptQYH- -ysvViDFsbJPfDkkKbSsnOdCICNxi9jS_eBx3UyqfDOxkuyxc-FOOeceUDBZBiYVc-70xsy3fBwZzWSYNt2osrvcgvI3jziIE_iCiuaNrdIc-ZhADV31vOcudfewU0000]--></g></svg>