<svg version="1.1" xmlns="http://www.w3.org/2000/svg" viewBox="0 0 1169.3591722215142 994.2815894661699" width="1169.3591722215142" height="994.2815894661699">
  <!-- svg-source:excalidraw -->
  
  <defs>
    <style class="style-fonts">
      @font-face {
        font-family: "Virgil";
        src: url("https://excalidraw.com/Virgil.woff2");
      }
      @font-face {
        font-family: "Cascadia";
        src: url("https://excalidraw.com/Cascadia.woff2");
      }
    </style>
    
  </defs>
  <rect x="0" y="0" width="1169.3591722215142" height="994.2815894661699" fill="#ffffff"/><g mask="url(#mask-zTIk79zs4aVytTeCV-8cW)" stroke-linecap="round"><g transform="translate(563.4404681428655 285.93460154337043) rotate(0 0.3223572348607888 52.68546119267306)"><path d="M0 0 C0.11 17.56, 0.54 87.81, 0.64 105.37 M0 0 C0.11 17.56, 0.54 87.81, 0.64 105.37" stroke="#1e1e1e" stroke-width="1" fill="none"/></g><g transform="translate(563.4404681428655 285.93460154337043) rotate(0 0.3223572348607888 52.68546119267306)"><path d="M-9.79 77.24 C-5.71 88.25, -1.62 99.26, 0.64 105.37 M-9.79 77.24 C-7.01 84.73, -4.24 92.21, 0.64 105.37" stroke="#1e1e1e" stroke-width="1" fill="none"/></g><g transform="translate(563.4404681428655 285.93460154337043) rotate(0 0.3223572348607888 52.68546119267306)"><path d="M10.73 77.12 C6.78 88.17, 2.84 99.23, 0.64 105.37 M10.73 77.12 C8.05 84.64, 5.36 92.16, 0.64 105.37" stroke="#1e1e1e" stroke-width="1" fill="none"/></g></g><mask id="mask-zTIk79zs4aVytTeCV-8cW"><rect x="0" y="0" fill="#fff" width="664.085182612587" height="491.3055239287165"/><rect x="543.7628253777262" y="327.1200627360435" fill="#000" width="40" height="23" opacity="1"/></mask><g transform="translate(543.7628253777264 327.12006273604356) rotate(0 20 11.499999999999986)"><text x="20" y="0" font-family="Helvetica, Segoe UI Emoji" font-size="20px" fill="#1e1e1e" text-anchor="middle" style="white-space: pre;" direction="ltr" dominant-baseline="text-before-edge">依赖</text></g><g stroke-linecap="round" transform="translate(10 108.48716453653589) rotate(0 90.5 394)"><path d="M32 0 M32 0 C73.27 0, 114.53 0, 149 0 M32 0 C62.67 0, 93.33 0, 149 0 M149 0 C170.33 0, 181 10.67, 181 32 M149 0 C170.33 0, 181 10.67, 181 32 M181 32 C181 280.56, 181 529.13, 181 756 M181 32 C181 185.46, 181 338.93, 181 756 M181 756 C181 777.33, 170.33 788, 149 788 M181 756 C181 777.33, 170.33 788, 149 788 M149 788 C119.87 788, 90.73 788, 32 788 M149 788 C108.03 788, 67.06 788, 32 788 M32 788 C10.67 788, 0 777.33, 0 756 M32 788 C10.67 788, 0 777.33, 0 756 M0 756 C0 473.54, 0 191.08, 0 32 M0 756 C0 474.7, 0 193.4, 0 32 M0 32 C0 10.67, 10.67 0, 32 0 M0 32 C0 10.67, 10.67 0, 32 0" stroke="#1e1e1e" stroke-width="1" fill="none"/></g><g transform="translate(50.5 479.4871645365359) rotate(0 50 23)"><text x="50" y="0" font-family="Helvetica, Segoe UI Emoji" font-size="20px" fill="#1e1e1e" text-anchor="middle" style="white-space: pre;" direction="ltr" dominant-baseline="text-before-edge">自动化测试</text><text x="50" y="23" font-family="Helvetica, Segoe UI Emoji" font-size="20px" fill="#1e1e1e" text-anchor="middle" style="white-space: pre;" direction="ltr" dominant-baseline="text-before-edge">工程</text></g><g mask="url(#mask-7dvTVzRYNb2KfYt3q0tnf)" stroke-linecap="round"><g transform="translate(788.845182724195 205.73030871400175) rotate(0 74.94872448064407 -0.972846172901086)"><path d="M0 0 C24.98 -0.32, 124.91 -1.62, 149.9 -1.95 M0 0 C24.98 -0.32, 124.91 -1.62, 149.9 -1.95" stroke="#1e1e1e" stroke-width="1" fill="none"/></g><g transform="translate(788.845182724195 205.73030871400175) rotate(0 74.94872448064407 -0.972846172901086)"><path d="M121.84 8.68 C127.86 6.4, 133.89 4.12, 149.9 -1.95 M121.84 8.68 C128.43 6.18, 135.03 3.69, 149.9 -1.95" stroke="#1e1e1e" stroke-width="1" fill="none"/></g><g transform="translate(788.845182724195 205.73030871400175) rotate(0 74.94872448064407 -0.972846172901086)"><path d="M121.58 -11.84 C127.65 -9.72, 133.73 -7.59, 149.9 -1.95 M121.58 -11.84 C128.23 -9.51, 134.89 -7.19, 149.9 -1.95" stroke="#1e1e1e" stroke-width="1" fill="none"/></g></g><mask id="mask-7dvTVzRYNb2KfYt3q0tnf"><rect x="0" y="0" fill="#fff" width="1038.742631685483" height="307.6760010598039"/><rect x="843.7939072048391" y="193.25746254110067" fill="#000" width="40" height="23" opacity="1"/></mask><g transform="translate(843.7939072048391 193.25746254110067) rotate(0 20 11.5)"><text x="20" y="0" font-family="Helvetica, Segoe UI Emoji" font-size="20px" fill="#1e1e1e" text-anchor="middle" style="white-space: pre;" direction="ltr" dominant-baseline="text-before-edge">依赖</text></g><g mask="url(#mask-XiSXwgEd5IxU3Li7b-WGr)" stroke-linecap="round"><g transform="translate(815.4492652439972 486.02842830840837) rotate(0 59.504950120693024 -0.31622652309193455)"><path d="M0 0 C19.83 -0.11, 99.17 -0.53, 119.01 -0.63 M0 0 C19.83 -0.11, 99.17 -0.53, 119.01 -0.63" stroke="#1e1e1e" stroke-width="1" fill="none"/></g><g transform="translate(815.4492652439972 486.02842830840837) rotate(0 59.504950120693024 -0.31622652309193455)"><path d="M90.87 9.78 C96.94 7.53, 103.01 5.29, 119.01 -0.63 M90.87 9.78 C101.91 5.69, 112.96 1.61, 119.01 -0.63" stroke="#1e1e1e" stroke-width="1" fill="none"/></g><g transform="translate(815.4492652439972 486.02842830840837) rotate(0 59.504950120693024 -0.31622652309193455)"><path d="M90.76 -10.74 C96.85 -8.56, 102.94 -6.38, 119.01 -0.63 M90.76 -10.74 C101.85 -6.78, 112.93 -2.81, 119.01 -0.63" stroke="#1e1e1e" stroke-width="1" fill="none"/></g></g><mask id="mask-XiSXwgEd5IxU3Li7b-WGr"><rect x="0" y="0" fill="#fff" width="1034.4591654853832" height="586.6608813545922"/><rect x="854.9542153646903" y="474.21220178531644" fill="#000" width="40" height="23" opacity="1"/></mask><g transform="translate(854.9542153646902 474.2122017853164) rotate(0 20 11.5)"><text x="20" y="0" font-family="Helvetica, Segoe UI Emoji" font-size="20px" fill="#1e1e1e" text-anchor="middle" style="white-space: pre;" direction="ltr" dominant-baseline="text-before-edge">依赖</text></g><g stroke-linecap="round" transform="translate(323.1204861792779 400.52932861858125) rotate(0 243 76.5)"><path d="M32 0 M32 0 C167.27 0, 302.53 0, 454 0 M454 0 C475.33 0, 486 10.67, 486 32 M486 32 C486 66.98, 486 101.97, 486 121 M486 121 C486 142.33, 475.33 153, 454 153 M454 153 C347.58 153, 241.16 153, 32 153 M32 153 C10.67 153, 0 142.33, 0 121 M0 121 C0 87.07, 0 53.14, 0 32 M0 32 C0 10.67, 10.67 0, 32 0" stroke="#1e1e1e" stroke-width="1.5" fill="none" stroke-dasharray="8 9"/></g><g transform="translate(526.1204861792779 405.52932861858125) rotate(0 40 11.5)"><text x="40" y="0" font-family="Helvetica, Segoe UI Emoji" font-size="20px" fill="#1e1e1e" text-anchor="middle" style="white-space: pre;" direction="ltr" dominant-baseline="text-before-edge">公共依赖</text></g><g stroke-linecap="round" transform="translate(338.1030935961762 436.7881264003892) rotate(0 64.5 42)"><path d="M21 0 M21 0 C47.46 0, 73.91 0, 108 0 M21 0 C47.33 0, 73.66 0, 108 0 M108 0 C122 0, 129 7, 129 21 M108 0 C122 0, 129 7, 129 21 M129 21 C129 36.55, 129 52.1, 129 63 M129 21 C129 34.63, 129 48.27, 129 63 M129 63 C129 77, 122 84, 108 84 M129 63 C129 77, 122 84, 108 84 M108 84 C73.49 84, 38.97 84, 21 84 M108 84 C75.91 84, 43.82 84, 21 84 M21 84 C7 84, 0 77, 0 63 M21 84 C7 84, 0 77, 0 63 M0 63 C0 54.06, 0 45.12, 0 21 M0 63 C0 46.44, 0 29.88, 0 21 M0 21 C0 7, 7 0, 21 0 M0 21 C0 7, 7 0, 21 0" stroke="#1e1e1e" stroke-width="1" fill="none"/></g><g transform="translate(367.5982107836762 455.7881264003892) rotate(0 35.0048828125 23)"><text x="35.0048828125" y="0" font-family="Helvetica, Segoe UI Emoji" font-size="20px" fill="#1e1e1e" text-anchor="middle" style="white-space: pre;" direction="ltr" dominant-baseline="text-before-edge">service-</text><text x="35.0048828125" y="23" font-family="Helvetica, Segoe UI Emoji" font-size="20px" fill="#1e1e1e" text-anchor="middle" style="white-space: pre;" direction="ltr" dominant-baseline="text-before-edge">helper</text></g><g stroke-linecap="round" transform="translate(497.3591140568975 436.7881264003892) rotate(0 64.5 42)"><path d="M21 0 M21 0 C52.2 0, 83.4 0, 108 0 M21 0 C44.65 0, 68.29 0, 108 0 M108 0 C122 0, 129 7, 129 21 M108 0 C122 0, 129 7, 129 21 M129 21 C129 35.88, 129 50.76, 129 63 M129 21 C129 34.39, 129 47.79, 129 63 M129 63 C129 77, 122 84, 108 84 M129 63 C129 77, 122 84, 108 84 M108 84 C74.16 84, 40.33 84, 21 84 M108 84 C88.27 84, 68.54 84, 21 84 M21 84 C7 84, 0 77, 0 63 M21 84 C7 84, 0 77, 0 63 M0 63 C0 49.56, 0 36.12, 0 21 M0 63 C0 51.39, 0 39.79, 0 21 M0 21 C0 7, 7 0, 21 0 M0 21 C0 7, 7 0, 21 0" stroke="#1e1e1e" stroke-width="1" fill="none"/></g><g transform="translate(517.9430984318975 467.2881264003892) rotate(0 43.916015625 11.5)"><text x="43.916015625" y="0" font-family="Helvetica, Segoe UI Emoji" font-size="20px" fill="#1e1e1e" text-anchor="middle" style="white-space: pre;" direction="ltr" dominant-baseline="text-before-edge">document</text></g><g stroke-linecap="round" transform="translate(659.6982190780034 436.7881264003892) rotate(0 64.5 42)"><path d="M21 0 M21 0 C52.04 0, 83.09 0, 108 0 M21 0 C40.72 0, 60.44 0, 108 0 M108 0 C122 0, 129 7, 129 21 M108 0 C122 0, 129 7, 129 21 M129 21 C129 36.83, 129 52.65, 129 63 M129 21 C129 35.91, 129 50.82, 129 63 M129 63 C129 77, 122 84, 108 84 M129 63 C129 77, 122 84, 108 84 M108 84 C85.45 84, 62.9 84, 21 84 M108 84 C78.3 84, 48.6 84, 21 84 M21 84 C7 84, 0 77, 0 63 M21 84 C7 84, 0 77, 0 63 M0 63 C0 48.19, 0 33.39, 0 21 M0 63 C0 53.77, 0 44.55, 0 21 M0 21 C0 7, 7 0, 21 0 M0 21 C0 7, 7 0, 21 0" stroke="#1e1e1e" stroke-width="1" fill="none"/></g><g transform="translate(707.5282972030034 467.2881264003892) rotate(0 16.669921875 11.5)"><text x="16.669921875" y="0" font-family="Helvetica, Segoe UI Emoji" font-size="20px" fill="#1e1e1e" text-anchor="middle" style="white-space: pre;" direction="ltr" dominant-baseline="text-before-edge">......</text></g><g mask="url(#mask-Lcz3OE2EW6YtW1CgWxkcQ)" stroke-linecap="round"><g transform="translate(341.0292708809172 217.9553837975978) rotate(0 -68.516983862091 0.4011980871545404)"><path d="M0 0 C-22.84 0.13, -114.19 0.67, -137.03 0.8 M0 0 C-22.84 0.13, -114.19 0.67, -137.03 0.8" stroke="#1e1e1e" stroke-width="0.5" fill="none"/></g><g transform="translate(341.0292708809172 217.9553837975978) rotate(0 -68.516983862091 0.4011980871545404)"><path d="M-108.9 -9.62 C-115.54 -7.16, -122.18 -4.7, -137.03 0.8 M-108.9 -9.62 C-119.28 -5.78, -129.66 -1.93, -137.03 0.8" stroke="#1e1e1e" stroke-width="0.5" fill="none"/></g><g transform="translate(341.0292708809172 217.9553837975978) rotate(0 -68.516983862091 0.4011980871545404)"><path d="M-108.78 10.9 C-115.45 8.52, -122.12 6.13, -137.03 0.8 M-108.78 10.9 C-119.2 7.17, -129.62 3.45, -137.03 0.8" stroke="#1e1e1e" stroke-width="0.5" fill="none"/></g></g><mask id="mask-Lcz3OE2EW6YtW1CgWxkcQ"><rect x="0" y="0" fill="#fff" width="578.0632386050992" height="318.75777997190687"/><rect x="252.5122870188262" y="206.85658188475236" fill="#000" width="40" height="23" opacity="1"/></mask><g transform="translate(252.5122870188262 206.85658188475236) rotate(0 19.99999999999997 11.499999999999972)"><text x="20" y="0" font-family="Helvetica, Segoe UI Emoji" font-size="20px" fill="#1e1e1e" text-anchor="middle" style="white-space: pre;" direction="ltr" dominant-baseline="text-before-edge">依赖</text></g><g mask="url(#mask-JwJn6xeLJmYHKmjirUHvO)" stroke-linecap="round"><g transform="translate(309.3231344380768 483.78836499109576) rotate(0 -55.678795445627685 -0.38343396695811904)"><path d="M0 0 C-18.56 -0.13, -92.8 -0.64, -111.36 -0.77 M0 0 C-18.56 -0.13, -92.8 -0.64, -111.36 -0.77" stroke="#1e1e1e" stroke-width="0.5" fill="none"/></g><g transform="translate(309.3231344380768 483.78836499109576) rotate(0 -55.678795445627685 -0.38343396695811904)"><path d="M-83.1 -10.83 C-94.31 -6.84, -105.52 -2.85, -111.36 -0.77 M-83.1 -10.83 C-92.99 -7.31, -102.89 -3.78, -111.36 -0.77" stroke="#1e1e1e" stroke-width="0.5" fill="none"/></g><g transform="translate(309.3231344380768 483.78836499109576) rotate(0 -55.678795445627685 -0.38343396695811904)"><path d="M-83.24 9.69 C-94.39 5.54, -105.55 1.39, -111.36 -0.77 M-83.24 9.69 C-93.09 6.03, -102.93 2.37, -111.36 -0.77" stroke="#1e1e1e" stroke-width="0.5" fill="none"/></g></g><mask id="mask-JwJn6xeLJmYHKmjirUHvO"><rect x="0" y="0" fill="#fff" width="520.6807253293322" height="584.555232925012"/><rect x="233.6443389924491" y="471.9049310241377" fill="#000" width="40" height="23" opacity="1"/></mask><g transform="translate(233.6443389924491 471.9049310241377) rotate(0 20.00000000000003 11.499999999999996)"><text x="20" y="0" font-family="Helvetica, Segoe UI Emoji" font-size="20px" fill="#1e1e1e" text-anchor="middle" style="white-space: pre;" direction="ltr" dominant-baseline="text-before-edge">依赖</text></g><g stroke-linecap="round" transform="translate(947.3591722215142 100.28975930581544) rotate(0 106 399)"><path d="M32 0 M32 0 C68.85 0, 105.71 0, 180 0 M32 0 C83.83 0, 135.65 0, 180 0 M180 0 C201.33 0, 212 10.67, 212 32 M180 0 C201.33 0, 212 10.67, 212 32 M212 32 C212 318.36, 212 604.72, 212 766 M212 32 C212 317.19, 212 602.37, 212 766 M212 766 C212 787.33, 201.33 798, 180 798 M212 766 C212 787.33, 201.33 798, 180 798 M180 798 C133.27 798, 86.54 798, 32 798 M180 798 C150.29 798, 120.59 798, 32 798 M32 798 C10.67 798, 0 787.33, 0 766 M32 798 C10.67 798, 0 787.33, 0 766 M0 766 C0 547.72, 0 329.44, 0 32 M0 766 C0 598.23, 0 430.47, 0 32 M0 32 C0 10.67, 10.67 0, 32 0 M0 32 C0 10.67, 10.67 0, 32 0" stroke="#1e1e1e" stroke-width="1" fill="none"/></g><g transform="translate(1003.3591722215142 105.28975930581544) rotate(0 50 11.5)"><text x="50" y="0" font-family="Helvetica, Segoe UI Emoji" font-size="20px" fill="#1e1e1e" text-anchor="middle" style="white-space: pre;" direction="ltr" dominant-baseline="text-before-edge">元数据工程</text></g><g stroke-linecap="round" transform="translate(989.8591722215142 202.21230527416208) rotate(0 63.5 24)"><path d="M127 24 C127 25.04, 126.82 26.1, 126.46 27.13 C126.1 28.17, 125.55 29.2, 124.84 30.21 C124.12 31.22, 123.22 32.22, 122.17 33.18 C121.11 34.15, 119.87 35.1, 118.49 36 C117.11 36.9, 115.56 37.78, 113.88 38.61 C112.2 39.44, 110.35 40.23, 108.4 40.97 C106.45 41.71, 104.35 42.4, 102.16 43.04 C99.96 43.68, 97.64 44.26, 95.25 44.78 C92.86 45.31, 90.35 45.77, 87.8 46.17 C85.25 46.57, 82.6 46.91, 79.94 47.18 C77.27 47.45, 74.53 47.66, 71.79 47.79 C69.05 47.93, 66.26 48, 63.5 48 C60.74 48, 57.95 47.93, 55.21 47.79 C52.47 47.66, 49.73 47.45, 47.06 47.18 C44.4 46.91, 41.75 46.57, 39.2 46.17 C36.65 45.77, 34.14 45.31, 31.75 44.78 C29.36 44.26, 27.04 43.68, 24.84 43.04 C22.65 42.4, 20.55 41.71, 18.6 40.97 C16.65 40.23, 14.8 39.44, 13.12 38.61 C11.44 37.78, 9.89 36.9, 8.51 36 C7.13 35.1, 5.89 34.15, 4.83 33.18 C3.78 32.22, 2.88 31.22, 2.16 30.21 C1.45 29.2, 0.9 28.17, 0.54 27.13 C0.18 26.1, 0 25.04, 0 24 C0 22.96, 0.18 21.9, 0.54 20.87 C0.9 19.83, 1.45 18.8, 2.16 17.79 C2.88 16.78, 3.78 15.78, 4.83 14.82 C5.89 13.85, 7.13 12.9, 8.51 12 C9.89 11.1, 11.44 10.22, 13.12 9.39 C14.8 8.56, 16.65 7.77, 18.6 7.03 C20.55 6.29, 22.65 5.6, 24.84 4.96 C27.04 4.32, 29.36 3.74, 31.75 3.22 C34.14 2.69, 36.65 2.23, 39.2 1.83 C41.75 1.43, 44.4 1.09, 47.06 0.82 C49.73 0.55, 52.47 0.34, 55.21 0.21 C57.95 0.07, 60.74 0, 63.5 0 C66.26 0, 69.05 0.07, 71.79 0.21 C74.53 0.34, 77.27 0.55, 79.94 0.82 C82.6 1.09, 85.25 1.43, 87.8 1.83 C90.35 2.23, 92.86 2.69, 95.25 3.22 C97.64 3.74, 99.96 4.32, 102.16 4.96 C104.35 5.6, 106.45 6.29, 108.4 7.03 C110.35 7.77, 112.2 8.56, 113.88 9.39 C115.56 10.22, 117.11 11.1, 118.49 12 C119.87 12.9, 121.11 13.85, 122.17 14.82 C123.22 15.78, 124.12 16.78, 124.84 17.79 C125.55 18.8, 126.1 19.83, 126.46 20.87 C126.82 21.9, 126.91 23.48, 127 24 C127.09 24.52, 127.09 23.48, 127 24" stroke="#1e1e1e" stroke-width="1.5" fill="none" stroke-dasharray="1.5 7"/></g><g transform="translate(1021.4578916161684 217.04174252568492) rotate(0 32 9.199999999999989)"><text x="32" y="0" font-family="Helvetica, Segoe UI Emoji" font-size="16px" fill="#1e1e1e" text-anchor="middle" style="white-space: pre;" direction="ltr" dominant-baseline="text-before-edge">第三方库</text></g><g stroke-linecap="round" transform="translate(990.8591722215142 307.09538533564546) rotate(0 62.5 35.5)"><path d="M125 35.5 C125 37.04, 124.82 38.6, 124.47 40.13 C124.11 41.67, 123.57 43.2, 122.87 44.69 C122.17 46.18, 121.28 47.66, 120.24 49.09 C119.2 50.51, 117.99 51.91, 116.63 53.25 C115.27 54.59, 113.74 55.89, 112.08 57.11 C110.43 58.34, 108.62 59.51, 106.69 60.6 C104.77 61.69, 102.7 62.72, 100.55 63.66 C98.39 64.6, 96.1 65.47, 93.75 66.24 C91.4 67.02, 88.93 67.71, 86.42 68.3 C83.91 68.89, 81.3 69.39, 78.68 69.79 C76.05 70.19, 73.35 70.49, 70.66 70.7 C67.96 70.9, 65.22 71, 62.5 71 C59.78 71, 57.04 70.9, 54.34 70.7 C51.65 70.49, 48.95 70.19, 46.32 69.79 C43.7 69.39, 41.09 68.89, 38.58 68.3 C36.07 67.71, 33.6 67.02, 31.25 66.24 C28.9 65.47, 26.61 64.6, 24.45 63.66 C22.3 62.72, 20.23 61.69, 18.31 60.6 C16.38 59.51, 14.57 58.34, 12.92 57.11 C11.26 55.89, 9.73 54.59, 8.37 53.25 C7.01 51.91, 5.8 50.51, 4.76 49.09 C3.72 47.66, 2.83 46.18, 2.13 44.69 C1.43 43.2, 0.89 41.67, 0.53 40.13 C0.18 38.6, 0 37.04, 0 35.5 C0 33.96, 0.18 32.4, 0.53 30.87 C0.89 29.33, 1.43 27.8, 2.13 26.31 C2.83 24.82, 3.72 23.34, 4.76 21.91 C5.8 20.49, 7.01 19.09, 8.37 17.75 C9.73 16.41, 11.26 15.11, 12.92 13.89 C14.57 12.66, 16.38 11.49, 18.31 10.4 C20.23 9.31, 22.3 8.28, 24.45 7.34 C26.61 6.4, 28.9 5.53, 31.25 4.76 C33.6 3.98, 36.07 3.29, 38.58 2.7 C41.09 2.11, 43.7 1.61, 46.32 1.21 C48.95 0.81, 51.65 0.51, 54.34 0.3 C57.04 0.1, 59.78 0, 62.5 0 C65.22 0, 67.96 0.1, 70.66 0.3 C73.35 0.51, 76.05 0.81, 78.68 1.21 C81.3 1.61, 83.91 2.11, 86.42 2.7 C88.93 3.29, 91.4 3.98, 93.75 4.76 C96.1 5.53, 98.39 6.4, 100.55 7.34 C102.7 8.28, 104.77 9.31, 106.69 10.4 C108.62 11.49, 110.43 12.66, 112.08 13.89 C113.74 15.11, 115.27 16.41, 116.63 17.75 C117.99 19.09, 119.2 20.49, 120.24 21.91 C121.28 23.34, 122.17 24.82, 122.87 26.31 C123.57 27.8, 124.11 29.33, 124.47 30.87 C124.82 32.4, 124.91 34.73, 125 35.5 C125.09 36.27, 125.09 34.73, 125 35.5" stroke="#1e1e1e" stroke-width="1.5" fill="none" stroke-dasharray="1.5 7"/></g><g transform="translate(1021.164998397355 324.093094603523) rotate(0 32 18.400000000000006)"><text x="32" y="0" font-family="Helvetica, Segoe UI Emoji" font-size="16px" fill="#1e1e1e" text-anchor="middle" style="white-space: pre;" direction="ltr" dominant-baseline="text-before-edge">公共属性</text><text x="32" y="18.4" font-family="Helvetica, Segoe UI Emoji" font-size="16px" fill="#1e1e1e" text-anchor="middle" style="white-space: pre;" direction="ltr" dominant-baseline="text-before-edge">和配置</text></g><g stroke-linecap="round" transform="translate(990.8591722215142 422.29904427997417) rotate(0 62.5 33)"><path d="M125 33 C125 34.44, 124.82 35.88, 124.47 37.31 C124.11 38.73, 123.57 40.15, 122.87 41.54 C122.17 42.93, 121.28 44.3, 120.24 45.63 C119.2 46.96, 117.99 48.26, 116.63 49.5 C115.27 50.74, 113.74 51.95, 112.08 53.09 C110.43 54.23, 108.62 55.32, 106.69 56.33 C104.77 57.35, 102.7 58.31, 100.55 59.18 C98.39 60.05, 96.1 60.86, 93.75 61.58 C91.4 62.3, 88.93 62.94, 86.42 63.49 C83.91 64.04, 81.3 64.5, 78.68 64.88 C76.05 65.25, 73.35 65.53, 70.66 65.72 C67.96 65.91, 65.22 66, 62.5 66 C59.78 66, 57.04 65.91, 54.34 65.72 C51.65 65.53, 48.95 65.25, 46.32 64.88 C43.7 64.5, 41.09 64.04, 38.58 63.49 C36.07 62.94, 33.6 62.3, 31.25 61.58 C28.9 60.86, 26.61 60.05, 24.45 59.18 C22.3 58.31, 20.23 57.35, 18.31 56.33 C16.38 55.32, 14.57 54.23, 12.92 53.09 C11.26 51.95, 9.73 50.74, 8.37 49.5 C7.01 48.26, 5.8 46.96, 4.76 45.63 C3.72 44.3, 2.83 42.93, 2.13 41.54 C1.43 40.15, 0.89 38.73, 0.53 37.31 C0.18 35.88, 0 34.44, 0 33 C0 31.56, 0.18 30.12, 0.53 28.69 C0.89 27.27, 1.43 25.85, 2.13 24.46 C2.83 23.07, 3.72 21.7, 4.76 20.37 C5.8 19.04, 7.01 17.74, 8.37 16.5 C9.73 15.26, 11.26 14.05, 12.92 12.91 C14.57 11.77, 16.38 10.68, 18.31 9.67 C20.23 8.65, 22.3 7.69, 24.45 6.82 C26.61 5.95, 28.9 5.14, 31.25 4.42 C33.6 3.7, 36.07 3.06, 38.58 2.51 C41.09 1.96, 43.7 1.5, 46.32 1.12 C48.95 0.75, 51.65 0.47, 54.34 0.28 C57.04 0.09, 59.78 0, 62.5 0 C65.22 0, 67.96 0.09, 70.66 0.28 C73.35 0.47, 76.05 0.75, 78.68 1.12 C81.3 1.5, 83.91 1.96, 86.42 2.51 C88.93 3.06, 91.4 3.7, 93.75 4.42 C96.1 5.14, 98.39 5.95, 100.55 6.82 C102.7 7.69, 104.77 8.65, 106.69 9.67 C108.62 10.68, 110.43 11.77, 112.08 12.91 C113.74 14.05, 115.27 15.26, 116.63 16.5 C117.99 17.74, 119.2 19.04, 120.24 20.37 C121.28 21.7, 122.17 23.07, 122.87 24.46 C123.57 25.85, 124.11 27.27, 124.47 28.69 C124.82 30.12, 124.91 32.28, 125 33 C125.09 33.72, 125.09 32.28, 125 33" stroke="#1e1e1e" stroke-width="1.5" fill="none" stroke-dasharray="1.5 7"/></g><g transform="translate(1021.164998397355 437.0645205008181) rotate(0 32 18.4)"><text x="32" y="0" font-family="Helvetica, Segoe UI Emoji" font-size="16px" fill="#1e1e1e" text-anchor="middle" style="white-space: pre;" direction="ltr" dominant-baseline="text-before-edge">插件管理</text><text x="32" y="18.4" font-family="Helvetica, Segoe UI Emoji" font-size="16px" fill="#1e1e1e" text-anchor="middle" style="white-space: pre;" direction="ltr" dominant-baseline="text-before-edge">和配置</text></g><g mask="url(#mask-fvaYnykjn5Ew2esdm8kbt)" stroke-linecap="round"><g transform="translate(328.5416696112096 761.8068633510891) rotate(0 -63.18541661454245 0.20789793908717513)"><path d="M0 0 C-21.06 0.07, -105.31 0.35, -126.37 0.42 M0 0 C-21.06 0.07, -105.31 0.35, -126.37 0.42" stroke="#1e1e1e" stroke-width="1" fill="none"/></g><g transform="translate(328.5416696112096 761.8068633510891) rotate(0 -63.18541661454245 0.20789793908717513)"><path d="M-98.21 -9.94 C-106.73 -6.81, -115.24 -3.68, -126.37 0.42 M-98.21 -9.94 C-106.56 -6.87, -114.91 -3.8, -126.37 0.42" stroke="#1e1e1e" stroke-width="1" fill="none"/></g><g transform="translate(328.5416696112096 761.8068633510891) rotate(0 -63.18541661454245 0.20789793908717513)"><path d="M-98.15 10.58 C-106.68 7.51, -115.21 4.44, -126.37 0.42 M-98.15 10.58 C-106.52 7.57, -114.89 4.55, -126.37 0.42" stroke="#1e1e1e" stroke-width="1" fill="none"/></g></g><mask id="mask-fvaYnykjn5Ew2esdm8kbt"><rect x="0" y="0" fill="#fff" width="554.9125028402946" height="862.2226592292634"/><rect x="245.3562529966672" y="750.5147612901762" fill="#000" width="40" height="23" opacity="1"/></mask><g transform="translate(245.3562529966672 750.5147612901762) rotate(0 19.99999999999997 11.499999999999986)"><text x="20" y="0" font-family="Helvetica, Segoe UI Emoji" font-size="20px" fill="#1e1e1e" text-anchor="middle" style="white-space: pre;" direction="ltr" dominant-baseline="text-before-edge">依赖</text></g><g mask="url(#mask-7GnlTb9v6iAhDHDPbSRwj)" stroke-linecap="round"><g transform="translate(804.8747627844921 768.5122016237239) rotate(0 66.96758166162186 1.3676955414194936)"><path d="M0 0 C22.32 0.46, 111.61 2.28, 133.94 2.74 M0 0 C22.32 0.46, 111.61 2.28, 133.94 2.74" stroke="#1e1e1e" stroke-width="1" fill="none"/></g><g transform="translate(804.8747627844921 768.5122016237239) rotate(0 66.96758166162186 1.3676955414194936)"><path d="M105.54 12.42 C112.01 10.21, 118.48 8.01, 133.94 2.74 M105.54 12.42 C111.98 10.22, 118.42 8.03, 133.94 2.74" stroke="#1e1e1e" stroke-width="1" fill="none"/></g><g transform="translate(804.8747627844921 768.5122016237239) rotate(0 66.96758166162186 1.3676955414194936)"><path d="M105.96 -8.1 C112.33 -5.63, 118.7 -3.16, 133.94 2.74 M105.96 -8.1 C112.3 -5.64, 118.65 -3.18, 133.94 2.74" stroke="#1e1e1e" stroke-width="1" fill="none"/></g></g><mask id="mask-7GnlTb9v6iAhDHDPbSRwj"><rect x="0" y="0" fill="#fff" width="1038.809926107736" height="871.2475927065628"/><rect x="851.8423444461139" y="758.3798971651433" fill="#000" width="40" height="23" opacity="1"/></mask><g transform="translate(851.8423444461139 758.3798971651433) rotate(0 20 11.5)"><text x="20" y="0" font-family="Helvetica, Segoe UI Emoji" font-size="20px" fill="#1e1e1e" text-anchor="middle" style="white-space: pre;" direction="ltr" dominant-baseline="text-before-edge">依赖</text></g><g mask="url(#mask-mYHhQCfoABuDaRswjnEJ6)" stroke-linecap="round"><g transform="translate(567.761765080612 672.6076383401032) rotate(0 -0.1324429073371931 -54.61729457573139)"><path d="M0 0 C-0.04 -18.21, -0.22 -91.03, -0.26 -109.23 M0 0 C-0.04 -18.21, -0.22 -91.03, -0.26 -109.23" stroke="#1e1e1e" stroke-width="1" fill="none"/></g><g transform="translate(567.761765080612 672.6076383401032) rotate(0 -0.1324429073371931 -54.61729457573139)"><path d="M10.06 -81.07 C7.39 -88.37, 4.71 -95.67, -0.26 -109.23 M10.06 -81.07 C6.76 -90.07, 3.47 -99.06, -0.26 -109.23" stroke="#1e1e1e" stroke-width="1" fill="none"/></g><g transform="translate(567.761765080612 672.6076383401032) rotate(0 -0.1324429073371931 -54.61729457573139)"><path d="M-10.46 -81.02 C-7.82 -88.33, -5.17 -95.65, -0.26 -109.23 M-10.46 -81.02 C-7.2 -90.03, -3.95 -99.05, -0.26 -109.23" stroke="#1e1e1e" stroke-width="1" fill="none"/></g></g><mask id="mask-mYHhQCfoABuDaRswjnEJ6"><rect x="0" y="0" fill="#fff" width="668.0266508952864" height="881.8422274915661"/><rect x="547.6293221732748" y="606.4903437643718" fill="#000" width="40" height="23" opacity="1"/></mask><g transform="translate(547.6293221732748 606.4903437643718) rotate(0 20 11.5)"><text x="20" y="0" font-family="Helvetica, Segoe UI Emoji" font-size="20px" fill="#1e1e1e" text-anchor="middle" style="white-space: pre;" direction="ltr" dominant-baseline="text-before-edge">依赖</text></g><g mask="url(#mask-YcYzZkwJ0sZAw9cVEPE8g)" stroke-linecap="round"><g transform="translate(101.51191478461806 903.2776403224173) rotate(0 478.91795382005853 35.494074749751235)"><path d="M0 0 C-0.25 22.3, -0.51 44.61, -0.81 70.99 M0 0 C-0.16 14.25, -0.33 28.5, -0.81 70.99 M-0.81 70.99 C340.99 69.93, 682.79 68.87, 958.65 68.02 M-0.81 70.99 C218.49 70.31, 437.79 69.63, 958.65 68.02 M958.65 68.02 C958.6 51.32, 958.55 34.62, 958.46 0.76 M958.65 68.02 C958.59 48.62, 958.54 29.23, 958.46 0.76" stroke="#1e1e1e" stroke-width="1" fill="none"/></g><g transform="translate(101.51191478461806 903.2776403224173) rotate(0 478.91795382005853 35.494074749751235)"><path d="M968.8 28.92 C965.55 20.07, 962.3 11.23, 958.46 0.76 M968.8 28.92 C966.72 23.27, 964.65 17.62, 958.46 0.76" stroke="#1e1e1e" stroke-width="1" fill="none"/></g><g transform="translate(101.51191478461806 903.2776403224173) rotate(0 478.91795382005853 35.494074749751235)"><path d="M948.28 28.98 C951.47 20.11, 954.67 11.25, 958.46 0.76 M948.28 28.98 C950.32 23.31, 952.36 17.65, 958.46 0.76" stroke="#1e1e1e" stroke-width="1" fill="none"/></g></g><mask id="mask-YcYzZkwJ0sZAw9cVEPE8g"><rect x="0" y="0" fill="#fff" width="1160.9691835562012" height="1074.2657898219197"/><rect x="560.4298686046766" y="961.2815894661699" fill="#000" width="40" height="23" opacity="1"/></mask><g transform="translate(560.4298686046766 961.2815894661699) rotate(0 20 -22.509874394001372)"><text x="20" y="0" font-family="Helvetica, Segoe UI Emoji" font-size="20px" fill="#1e1e1e" text-anchor="middle" style="white-space: pre;" direction="ltr" dominant-baseline="text-before-edge">依赖</text></g><g stroke-linecap="round" transform="translate(991.0732023994083 544.6773575719866) rotate(0 62.5 33)"><path d="M125 33 C125 34.44, 124.82 35.88, 124.47 37.31 C124.11 38.73, 123.57 40.15, 122.87 41.54 C122.17 42.93, 121.28 44.3, 120.24 45.63 C119.2 46.96, 117.99 48.26, 116.63 49.5 C115.27 50.74, 113.74 51.95, 112.08 53.09 C110.43 54.23, 108.62 55.32, 106.69 56.33 C104.77 57.35, 102.7 58.31, 100.55 59.18 C98.39 60.05, 96.1 60.86, 93.75 61.58 C91.4 62.3, 88.93 62.94, 86.42 63.49 C83.91 64.04, 81.3 64.5, 78.68 64.88 C76.05 65.25, 73.35 65.53, 70.66 65.72 C67.96 65.91, 65.22 66, 62.5 66 C59.78 66, 57.04 65.91, 54.34 65.72 C51.65 65.53, 48.95 65.25, 46.32 64.88 C43.7 64.5, 41.09 64.04, 38.58 63.49 C36.07 62.94, 33.6 62.3, 31.25 61.58 C28.9 60.86, 26.61 60.05, 24.45 59.18 C22.3 58.31, 20.23 57.35, 18.31 56.33 C16.38 55.32, 14.57 54.23, 12.92 53.09 C11.26 51.95, 9.73 50.74, 8.37 49.5 C7.01 48.26, 5.8 46.96, 4.76 45.63 C3.72 44.3, 2.83 42.93, 2.13 41.54 C1.43 40.15, 0.89 38.73, 0.53 37.31 C0.18 35.88, 0 34.44, 0 33 C0 31.56, 0.18 30.12, 0.53 28.69 C0.89 27.27, 1.43 25.85, 2.13 24.46 C2.83 23.07, 3.72 21.7, 4.76 20.37 C5.8 19.04, 7.01 17.74, 8.37 16.5 C9.73 15.26, 11.26 14.05, 12.92 12.91 C14.57 11.77, 16.38 10.68, 18.31 9.67 C20.23 8.65, 22.3 7.69, 24.45 6.82 C26.61 5.95, 28.9 5.14, 31.25 4.42 C33.6 3.7, 36.07 3.06, 38.58 2.51 C41.09 1.96, 43.7 1.5, 46.32 1.12 C48.95 0.75, 51.65 0.47, 54.34 0.28 C57.04 0.09, 59.78 0, 62.5 0 C65.22 0, 67.96 0.09, 70.66 0.28 C73.35 0.47, 76.05 0.75, 78.68 1.12 C81.3 1.5, 83.91 1.96, 86.42 2.51 C88.93 3.06, 91.4 3.7, 93.75 4.42 C96.1 5.14, 98.39 5.95, 100.55 6.82 C102.7 7.69, 104.77 8.65, 106.69 9.67 C108.62 10.68, 110.43 11.77, 112.08 12.91 C113.74 14.05, 115.27 15.26, 116.63 16.5 C117.99 17.74, 119.2 19.04, 120.24 20.37 C121.28 21.7, 122.17 23.07, 122.87 24.46 C123.57 25.85, 124.11 27.27, 124.47 28.69 C124.82 30.12, 124.91 32.28, 125 33 C125.09 33.72, 125.09 32.28, 125 33" stroke="#1e1e1e" stroke-width="1.5" fill="none" stroke-dasharray="1.5 7"/></g><g transform="translate(1040.043091075249 568.6428337928305) rotate(0 13.3359375 9.2)"><text x="13.3359375" y="0" font-family="Helvetica, Segoe UI Emoji" font-size="16px" fill="#1e1e1e" text-anchor="middle" style="white-space: pre;" direction="ltr" dominant-baseline="text-before-edge">......</text></g><g stroke-linecap="round" transform="translate(336.7648770634048 10) rotate(0 224.5 61)"><path d="M7.46 7.81 C7.46 7.81, 7.46 7.81, 7.46 7.81 M7.46 7.81 C7.46 7.81, 7.46 7.81, 7.46 7.81 M3.26 18.74 C8.79 12.38, 14.32 6.02, 17.7 2.13 M3.26 18.74 C8.36 12.88, 13.45 7.02, 17.7 2.13 M3 25.14 C9.62 17.52, 16.24 9.91, 24 0.99 M3 25.14 C9.79 17.33, 16.57 9.53, 24 0.99 M2.74 31.53 C13.24 19.46, 23.73 7.39, 29.64 0.59 M2.74 31.53 C13.19 19.51, 23.64 7.49, 29.64 0.59 M2.48 37.93 C12.75 26.12, 23.02 14.3, 33.32 2.46 M2.48 37.93 C12.33 26.6, 22.18 15.27, 33.32 2.46 M2.87 43.57 C14.21 30.54, 25.54 17.5, 38.3 2.82 M2.87 43.57 C12.67 32.31, 22.46 21.05, 38.3 2.82 M2.61 49.97 C12.79 38.27, 22.96 26.57, 43.95 2.43 M2.61 49.97 C12.58 38.51, 22.54 27.05, 43.95 2.43 M3.01 55.62 C21.15 34.75, 39.28 13.89, 48.93 2.79 M3.01 55.62 C14.39 42.52, 25.78 29.42, 48.93 2.79 M2.75 62.01 C18.64 43.73, 34.53 25.45, 54.58 2.39 M2.75 62.01 C13.88 49.2, 25.02 36.39, 54.58 2.39 M2.49 68.41 C16.58 52.2, 30.67 35.99, 59.56 2.75 M2.49 68.41 C23.9 43.78, 45.32 19.14, 59.56 2.75 M2.88 74.05 C20.08 54.27, 37.28 34.48, 65.21 2.36 M2.88 74.05 C22.09 51.95, 41.31 29.85, 65.21 2.36 M2.62 80.45 C24.04 55.81, 45.46 31.17, 70.19 2.72 M2.62 80.45 C27.69 51.61, 52.77 22.76, 70.19 2.72 M3.01 86.09 C19.4 67.24, 35.79 48.39, 75.84 2.32 M3.01 86.09 C27 58.51, 50.98 30.92, 75.84 2.32 M2.75 92.49 C22.72 69.52, 42.68 46.55, 80.82 2.68 M2.75 92.49 C33.11 57.57, 63.47 22.64, 80.82 2.68 M1.83 99.65 C30.11 67.12, 58.38 34.6, 86.47 2.29 M1.83 99.65 C21.02 77.57, 40.21 55.49, 86.47 2.29 M2.23 105.29 C31.06 72.13, 59.88 38.97, 91.45 2.65 M2.23 105.29 C22.09 82.44, 41.95 59.6, 91.45 2.65 M3.94 109.42 C31.2 78.06, 58.46 46.69, 97.1 2.25 M3.94 109.42 C30.93 78.37, 57.93 47.31, 97.1 2.25 M6.95 112.05 C43.89 69.55, 80.83 27.06, 102.08 2.61 M6.95 112.05 C36.14 78.47, 65.33 44.89, 102.08 2.61 M9.32 115.43 C38.82 81.49, 68.32 47.55, 107.73 2.22 M9.32 115.43 C43.6 75.98, 77.89 36.54, 107.73 2.22 M12.34 118.05 C45.46 79.94, 78.59 41.84, 112.71 2.58 M12.34 118.05 C44.14 81.46, 75.95 44.87, 112.71 2.58 M16.01 119.92 C43 88.87, 70 57.81, 118.36 2.18 M16.01 119.92 C54.2 75.98, 92.4 32.04, 118.36 2.18 M19.69 121.79 C44.18 93.61, 68.68 65.43, 123.34 2.54 M19.69 121.79 C57.89 77.84, 96.09 33.9, 123.34 2.54 M24.67 122.15 C45.78 97.87, 66.89 73.59, 128.99 2.15 M24.67 122.15 C53.39 89.12, 82.1 56.08, 128.99 2.15 M29.66 122.51 C51 97.96, 72.34 73.41, 133.97 2.51 M29.66 122.51 C52.44 96.31, 75.21 70.11, 133.97 2.51 M33.33 124.38 C59.12 94.71, 84.91 65.05, 139.62 2.12 M33.33 124.38 C65.91 86.91, 98.48 49.44, 139.62 2.12 M38.32 124.74 C74.63 82.97, 110.94 41.2, 144.6 2.48 M38.32 124.74 C66.32 92.53, 94.31 60.32, 144.6 2.48 M43.96 124.34 C67.46 97.31, 90.96 70.28, 150.25 2.08 M43.96 124.34 C71.52 92.65, 99.07 60.95, 150.25 2.08 M48.95 124.7 C87.59 80.25, 126.24 35.8, 155.23 2.44 M48.95 124.7 C85.25 82.95, 121.54 41.2, 155.23 2.44 M54.59 124.31 C84.55 89.85, 114.5 55.4, 160.22 2.8 M54.59 124.31 C82.76 91.91, 110.92 59.52, 160.22 2.8 M59.58 124.67 C101.67 76.25, 143.76 27.83, 165.86 2.41 M59.58 124.67 C94.76 84.2, 129.93 43.74, 165.86 2.41 M65.22 124.27 C95.36 89.61, 125.49 54.95, 170.85 2.77 M65.22 124.27 C86.59 99.7, 107.96 75.12, 170.85 2.77 M70.21 124.63 C109.94 78.93, 149.67 33.23, 176.49 2.37 M70.21 124.63 C107.49 81.75, 144.78 38.86, 176.49 2.37 M75.85 124.24 C117.14 76.75, 158.42 29.25, 181.48 2.73 M75.85 124.24 C105.49 90.15, 135.12 56.06, 181.48 2.73 M80.84 124.6 C106.49 95.1, 132.13 65.6, 187.12 2.34 M80.84 124.6 C119.17 80.51, 157.49 36.42, 187.12 2.34 M86.48 124.21 C115.45 90.88, 144.42 57.56, 192.11 2.7 M86.48 124.21 C113.56 93.06, 140.64 61.91, 192.11 2.7 M91.47 124.57 C128.89 81.52, 166.31 38.47, 197.75 2.3 M91.47 124.57 C129.8 80.47, 168.13 36.38, 197.75 2.3 M97.11 124.17 C130.79 85.43, 164.47 46.69, 202.74 2.66 M97.11 124.17 C120.9 96.8, 144.69 69.44, 202.74 2.66 M102.1 124.53 C130.72 91.61, 159.33 58.7, 208.38 2.27 M102.1 124.53 C143.74 76.63, 185.38 28.73, 208.38 2.27 M107.74 124.14 C130.7 97.73, 153.65 71.33, 213.37 2.63 M107.74 124.14 C131.34 96.99, 154.93 69.85, 213.37 2.63 M112.73 124.5 C151.54 79.85, 190.35 35.21, 219.01 2.23 M112.73 124.5 C148.39 83.47, 184.06 42.45, 219.01 2.23 M118.38 124.1 C157.64 78.93, 196.91 33.76, 224 2.59 M118.38 124.1 C142.42 96.44, 166.46 68.79, 224 2.59 M123.36 124.46 C146.92 97.36, 170.48 70.26, 229.64 2.2 M123.36 124.46 C156.73 86.07, 190.11 47.68, 229.64 2.2 M129.01 124.07 C160.03 88.38, 191.05 52.7, 234.63 2.56 M129.01 124.07 C166.54 80.89, 204.07 37.71, 234.63 2.56 M133.99 124.43 C158.42 96.32, 182.85 68.22, 240.27 2.16 M133.99 124.43 C164.8 88.98, 195.62 53.54, 240.27 2.16 M138.98 124.79 C160.65 99.85, 182.33 74.92, 245.26 2.52 M138.98 124.79 C167.11 92.43, 195.24 60.07, 245.26 2.52 M144.62 124.39 C186.11 76.67, 227.59 28.95, 250.9 2.13 M144.62 124.39 C172.96 91.79, 201.3 59.19, 250.9 2.13 M149.61 124.75 C174.35 96.3, 199.08 67.84, 255.89 2.49 M149.61 124.75 C187.26 81.45, 224.9 38.14, 255.89 2.49 M155.25 124.36 C188.52 86.09, 221.78 47.83, 261.53 2.1 M155.25 124.36 C185.89 89.12, 216.52 53.88, 261.53 2.1 M160.24 124.72 C183.59 97.86, 206.94 71, 266.52 2.46 M160.24 124.72 C198.85 80.3, 237.47 35.88, 266.52 2.46 M165.88 124.32 C188.81 97.95, 211.74 71.57, 271.51 2.82 M165.88 124.32 C191.15 95.26, 216.42 66.19, 271.51 2.82 M170.87 124.68 C204.21 86.33, 237.56 47.97, 277.15 2.42 M170.87 124.68 C210.4 79.21, 249.93 33.74, 277.15 2.42 M176.51 124.29 C211.51 84.03, 246.5 43.78, 282.14 2.78 M176.51 124.29 C202.38 94.53, 228.25 64.77, 282.14 2.78 M181.5 124.65 C221.17 79.01, 260.84 33.38, 287.78 2.39 M181.5 124.65 C202.81 100.13, 224.13 75.61, 287.78 2.39 M187.14 124.26 C218.16 88.57, 249.19 52.88, 292.77 2.75 M187.14 124.26 C215.78 91.31, 244.43 58.36, 292.77 2.75 M192.13 124.62 C231.03 79.87, 269.93 35.12, 298.41 2.35 M192.13 124.62 C214.49 98.89, 236.86 73.16, 298.41 2.35 M197.77 124.22 C234.92 81.49, 272.06 38.76, 303.4 2.71 M197.77 124.22 C232.04 84.8, 266.32 45.37, 303.4 2.71 M202.76 124.58 C241.98 79.46, 281.2 34.35, 309.04 2.32 M202.76 124.58 C234.99 87.5, 267.23 50.42, 309.04 2.32 M208.4 124.19 C246.64 80.2, 284.87 36.22, 314.03 2.68 M208.4 124.19 C235.01 93.58, 261.62 62.96, 314.03 2.68 M213.39 124.55 C252.59 79.46, 291.78 34.37, 319.67 2.28 M213.39 124.55 C247.57 85.22, 281.76 45.9, 319.67 2.28 M219.03 124.15 C260.31 76.67, 301.59 29.18, 324.66 2.64 M219.03 124.15 C255.08 82.68, 291.13 41.21, 324.66 2.64 M224.02 124.51 C251.78 92.58, 279.54 60.64, 330.3 2.25 M224.02 124.51 C250.43 94.13, 276.84 63.74, 330.3 2.25 M229.66 124.12 C262.8 86, 295.93 47.88, 335.29 2.61 M229.66 124.12 C263.56 85.12, 297.47 46.12, 335.29 2.61 M234.65 124.48 C261.37 93.74, 288.09 63, 340.93 2.21 M234.65 124.48 C256.71 99.1, 278.77 73.72, 340.93 2.21 M240.29 124.08 C263.06 97.89, 285.83 71.7, 345.92 2.57 M240.29 124.08 C278.31 80.35, 316.32 36.62, 345.92 2.57 M245.28 124.44 C272.29 93.37, 299.3 62.31, 351.56 2.18 M245.28 124.44 C273.25 92.27, 301.22 60.09, 351.56 2.18 M250.27 124.8 C291.79 77.04, 333.31 29.27, 356.55 2.54 M250.27 124.8 C278.72 92.07, 307.17 59.34, 356.55 2.54 M255.91 124.41 C287.07 88.56, 318.24 52.71, 362.19 2.15 M255.91 124.41 C279.31 97.49, 302.71 70.57, 362.19 2.15 M260.9 124.77 C297.32 82.87, 333.75 40.96, 367.18 2.51 M260.9 124.77 C292.22 88.74, 323.53 52.71, 367.18 2.51 M266.54 124.37 C298.65 87.44, 330.75 50.51, 372.82 2.11 M266.54 124.37 C290.37 96.97, 314.19 69.56, 372.82 2.11 M271.53 124.73 C312.42 77.7, 353.3 30.66, 377.81 2.47 M271.53 124.73 C306.77 84.19, 342.02 43.64, 377.81 2.47 M277.17 124.34 C311.54 84.8, 345.92 45.25, 383.45 2.08 M277.17 124.34 C315.58 80.16, 353.98 35.98, 383.45 2.08 M282.16 124.7 C307.57 95.47, 332.98 66.24, 388.44 2.44 M282.16 124.7 C315.12 86.78, 348.08 48.87, 388.44 2.44 M287.8 124.3 C320.48 86.71, 353.16 49.12, 393.43 2.8 M287.8 124.3 C315.11 92.89, 342.41 61.48, 393.43 2.8 M292.79 124.66 C318.04 95.62, 343.29 66.57, 399.07 2.4 M292.79 124.66 C314.28 99.94, 335.77 75.22, 399.07 2.4 M298.43 124.27 C332.38 85.22, 366.32 46.17, 404.06 2.76 M298.43 124.27 C328.33 89.87, 358.24 55.47, 404.06 2.76 M303.42 124.63 C337.58 85.33, 371.74 46.03, 409.7 2.37 M303.42 124.63 C326.87 97.65, 350.32 70.67, 409.7 2.37 M309.06 124.24 C343.95 84.1, 378.84 43.97, 414.69 2.73 M309.06 124.24 C345.31 82.54, 381.55 40.84, 414.69 2.73 M314.05 124.6 C339.83 94.93, 365.62 65.27, 420.99 1.58 M314.05 124.6 C337.45 97.67, 360.86 70.75, 420.99 1.58 M319.69 124.2 C342.83 97.59, 365.97 70.97, 426.63 1.18 M319.69 124.2 C350.42 88.85, 381.15 53.5, 426.63 1.18 M324.68 124.56 C362.58 80.97, 400.47 37.37, 430.96 2.3 M324.68 124.56 C355.58 89.01, 386.49 53.46, 430.96 2.3 M330.32 124.17 C368.83 79.87, 407.34 35.57, 434.63 4.17 M330.32 124.17 C362.14 87.56, 393.96 50.96, 434.63 4.17 M335.31 124.53 C359.88 96.26, 384.46 67.98, 438.97 5.28 M335.31 124.53 C373.77 80.28, 412.23 36.04, 438.97 5.28 M340.95 124.13 C370.02 90.7, 399.08 57.26, 441.98 7.91 M340.95 124.13 C373.9 86.23, 406.84 48.34, 441.98 7.91 M345.94 124.49 C371.65 94.91, 397.37 65.33, 444.35 11.29 M345.94 124.49 C369.05 97.9, 392.17 71.31, 444.35 11.29 M351.58 124.1 C388 82.2, 424.42 40.3, 447.37 13.91 M351.58 124.1 C372.76 99.74, 393.93 75.38, 447.37 13.91 M356.57 124.46 C376.53 101.5, 396.48 78.54, 448.42 18.8 M356.57 124.46 C383.96 92.95, 411.35 61.44, 448.42 18.8 M362.21 124.06 C394.03 87.47, 425.84 50.87, 449.47 23.69 M362.21 124.06 C379.77 103.87, 397.33 83.67, 449.47 23.69 M367.2 124.42 C392 95.89, 416.8 67.36, 449.21 30.08 M367.2 124.42 C385.03 103.91, 402.87 83.39, 449.21 30.08 M372.19 124.78 C392.92 100.93, 413.66 77.08, 449.6 35.73 M372.19 124.78 C389.08 105.34, 405.98 85.9, 449.6 35.73 M377.83 124.39 C400.96 97.77, 424.1 71.16, 449.34 42.13 M377.83 124.39 C398.56 100.55, 419.28 76.7, 449.34 42.13 M382.82 124.75 C397.82 107.49, 412.83 90.22, 449.08 48.52 M382.82 124.75 C406.98 96.95, 431.15 69.15, 449.08 48.52 M388.46 124.35 C406.56 103.53, 424.67 82.7, 449.47 54.17 M388.46 124.35 C403.9 106.6, 419.33 88.84, 449.47 54.17 M393.45 124.71 C409.41 106.35, 425.37 87.98, 449.21 60.56 M393.45 124.71 C408.7 107.16, 423.96 89.61, 449.21 60.56 M399.09 124.32 C411.6 109.93, 424.1 95.54, 449.6 66.21 M399.09 124.32 C413.5 107.74, 427.92 91.15, 449.6 66.21 M404.08 124.68 C413.24 114.13, 422.41 103.59, 449.34 72.61 M404.08 124.68 C418.5 108.09, 432.92 91.5, 449.34 72.61 M409.72 124.29 C418.16 114.57, 426.61 104.86, 449.74 78.25 M409.72 124.29 C417.96 114.81, 426.2 105.33, 449.74 78.25 M414.71 124.65 C423.04 115.05, 431.38 105.46, 449.48 84.65 M414.71 124.65 C422.14 116.09, 429.58 107.53, 449.48 84.65 M420.35 124.25 C427.18 116.4, 434.01 108.54, 449.87 90.29 M420.35 124.25 C428.44 114.94, 436.54 105.62, 449.87 90.29 M427.3 122.35 C436.58 111.67, 445.86 101, 452.23 93.67 M427.3 122.35 C432.66 116.19, 438.01 110.03, 452.23 93.67 M433.6 121.2 C438.59 115.46, 443.58 109.72, 447.38 105.35 M433.6 121.2 C438.98 115.01, 444.37 108.82, 447.38 105.35" stroke="#868e96" stroke-width="0.5" fill="none"/><path d="M30.5 0 M30.5 0 C140.22 0, 249.94 0, 418.5 0 M30.5 0 C153.22 0, 275.94 0, 418.5 0 M418.5 0 C438.83 0, 449 10.17, 449 30.5 M418.5 0 C438.83 0, 449 10.17, 449 30.5 M449 30.5 C449 46.41, 449 62.33, 449 91.5 M449 30.5 C449 47.03, 449 63.57, 449 91.5 M449 91.5 C449 111.83, 438.83 122, 418.5 122 M449 91.5 C449 111.83, 438.83 122, 418.5 122 M418.5 122 C324.24 122, 229.98 122, 30.5 122 M418.5 122 C267.15 122, 115.8 122, 30.5 122 M30.5 122 C10.17 122, 0 111.83, 0 91.5 M30.5 122 C10.17 122, 0 111.83, 0 91.5 M0 91.5 C0 73.14, 0 54.79, 0 30.5 M0 91.5 C0 78.77, 0 66.05, 0 30.5 M0 30.5 C0 10.17, 10.17 0, 30.5 0 M0 30.5 C0 10.17, 10.17 0, 30.5 0" stroke="#1e1e1e" stroke-width="1" fill="none"/></g><g transform="translate(501.2648770634048 59.5) rotate(0 60 11.5)"><text x="60" y="0" font-family="Helvetica, Segoe UI Emoji" font-size="20px" fill="#1e1e1e" text-anchor="middle" style="white-space: pre;" direction="ltr" dominant-baseline="text-before-edge">网关完全独立</text></g><g stroke-linecap="round" transform="translate(654.870009949746 31.07363097876589) rotate(0 58.5 30)"><path d="M3.99 3.47 C3.99 3.47, 3.99 3.47, 3.99 3.47 M3.99 3.47 C3.99 3.47, 3.99 3.47, 3.99 3.47 M1.11 12.89 C4.39 8.49, 6.98 6.71, 10.29 2.32 M1.11 12.89 C3.72 10.35, 4.61 8.57, 10.29 2.32 M1.5 18.53 C5.51 11.92, 10.83 4.17, 16.59 1.17 M1.5 18.53 C6.54 13.04, 11.33 8.49, 16.59 1.17 M1.24 24.93 C8.81 17.48, 13.97 7.72, 21.58 1.53 M1.24 24.93 C7.58 18.6, 13.54 11.71, 21.58 1.53 M1.63 30.57 C9.34 20.66, 17.93 12.8, 27.22 1.14 M1.63 30.57 C10.41 20.4, 17.92 11.05, 27.22 1.14 M1.37 36.97 C10.86 26.82, 18.08 17.29, 32.21 1.5 M1.37 36.97 C13.34 22.79, 24.65 9.71, 32.21 1.5 M1.11 43.37 C11.47 34.3, 20.52 21.96, 37.85 1.1 M1.11 43.37 C9.25 33.77, 16.67 26.08, 37.85 1.1 M1.51 49.01 C13.68 34.3, 28.89 20.25, 42.84 1.46 M1.51 49.01 C16.23 30.74, 31.53 13.78, 42.84 1.46 M2.56 53.9 C16.58 36.49, 34.6 20.63, 48.48 1.07 M2.56 53.9 C17.57 36.86, 33.34 17.3, 48.48 1.07 M4.92 57.28 C16.89 41.77, 28.29 26.68, 53.47 1.43 M4.92 57.28 C15.49 45.59, 26.91 31.65, 53.47 1.43 M7.94 59.9 C21.85 41.78, 37.59 26.41, 59.11 1.03 M7.94 59.9 C26.31 38.9, 43.64 20.63, 59.11 1.03 M12.27 61.02 C26.36 44.26, 39.85 30.35, 64.1 1.39 M12.27 61.02 C26.18 45.77, 40.84 29.71, 64.1 1.39 M17.26 61.38 C29.63 46.43, 43.38 32.61, 69.74 1 M17.26 61.38 C31.43 44, 47.32 27.43, 69.74 1 M22.24 61.74 C35.58 46.72, 43.99 35.68, 74.73 1.36 M22.24 61.74 C42.43 39.78, 60.99 16.97, 74.73 1.36 M27.89 61.34 C45.15 39.98, 65.84 20.35, 80.37 0.97 M27.89 61.34 C40.45 46.11, 55.7 30.12, 80.37 0.97 M32.87 61.7 C49.81 43.93, 62.58 24.88, 85.36 1.33 M32.87 61.7 C48.55 42.67, 65.42 25.48, 85.36 1.33 M37.86 62.06 C57.7 38.86, 75.97 15.67, 91 0.93 M37.86 62.06 C49.23 48.13, 62.79 33.01, 91 0.93 M43.5 61.67 C63.88 39.35, 81.53 16.7, 95.99 1.29 M43.5 61.67 C55.33 46.71, 67.42 33.13, 95.99 1.29 M48.49 62.03 C63.87 44.06, 76.02 27.7, 102.29 0.14 M48.49 62.03 C68.83 36.94, 90.88 13.53, 102.29 0.14 M54.13 61.63 C68.51 47.28, 79.67 32.44, 106.62 1.26 M54.13 61.63 C65.97 46.41, 80.38 30.82, 106.62 1.26 M59.12 61.99 C70.69 49.68, 83.62 36.15, 110.95 2.37 M59.12 61.99 C77.41 41.87, 95.67 21.84, 110.95 2.37 M64.76 61.6 C78.54 49.46, 87.92 32.94, 113.97 5 M64.76 61.6 C82.38 41.46, 101.09 20.61, 113.97 5 M69.75 61.96 C77.72 52.71, 89.54 40.39, 116.99 7.62 M69.75 61.96 C88.22 40.71, 105.9 21.35, 116.99 7.62 M75.39 61.56 C88.34 42.59, 103.26 25.88, 118.04 12.51 M75.39 61.56 C89.81 44.76, 104.52 28.75, 118.04 12.51 M80.38 61.92 C87.16 51.26, 96.6 43.6, 117.78 18.91 M80.38 61.92 C87.66 52.86, 94.8 43.93, 117.78 18.91 M86.02 61.53 C93.99 52.65, 105.96 40.42, 118.17 24.55 M86.02 61.53 C94.7 52.16, 104.14 40.37, 118.17 24.55 M91.01 61.89 C98.8 51.72, 104.59 45.64, 117.91 30.95 M91.01 61.89 C100.63 49.82, 111.65 38.47, 117.91 30.95 M96.65 61.5 C104.4 55.65, 110.66 46.7, 118.3 36.59 M96.65 61.5 C101.03 56.52, 107.15 49.85, 118.3 36.59 M102.95 60.35 C109.88 52.9, 115.36 46.38, 118.04 42.99 M102.95 60.35 C107.44 55.48, 110.43 51.55, 118.04 42.99 M109.25 59.2 C111.44 55.88, 118.06 49.88, 119.75 47.12 M109.25 59.2 C113.03 54.11, 117.8 50.14, 119.75 47.12" stroke="#868e96" stroke-width="0.5" fill="none"/><path d="M15 0 M15 0 C45.75 -0.64, 77.44 -0.33, 102 0 M15 0 C40.19 0.69, 66.43 -0.01, 102 0 M102 0 C111.63 -0.18, 118.72 6.86, 117 15 M102 0 C113.4 -0.41, 116.47 4.41, 117 15 M117 15 C115.03 25.91, 117.45 34.7, 117 45 M117 15 C116.56 24.7, 118.01 36.32, 117 45 M117 45 C116.82 55.23, 111.58 59.25, 102 60 M117 45 C116.88 53.11, 110.49 59.9, 102 60 M102 60 C70.88 62.5, 44.52 62.29, 15 60 M102 60 C76.69 60.32, 52.54 59.92, 15 60 M15 60 C6.43 60.75, 0.58 53.28, 0 45 M15 60 C2.82 62, -1.1 56.08, 0 45 M0 45 C-1.39 37.04, 0.88 27.76, 0 15 M0 45 C-0.49 36.63, 0.72 29.15, 0 15 M0 15 C-0.74 3.57, 6.24 -1.53, 15 0 M0 15 C-1.19 5.92, 4.09 -2.1, 15 0" stroke="#1e1e1e" stroke-width="1" fill="none"/></g><g transform="translate(673.907119324746 38.07363097876589) rotate(0 39.462890625 23)"><text x="39.462890625" y="0" font-family="Helvetica, Segoe UI Emoji" font-size="20px" fill="#1e1e1e" text-anchor="middle" style="white-space: pre;" direction="ltr" dominant-baseline="text-before-edge">auth相关</text><text x="39.462890625" y="23" font-family="Helvetica, Segoe UI Emoji" font-size="20px" fill="#1e1e1e" text-anchor="middle" style="white-space: pre;" direction="ltr" dominant-baseline="text-before-edge">工程</text></g><g stroke-linecap="round" transform="translate(352.79376661001015 157.4840358486528) rotate(0 213.5 58.5)"><path d="M29.25 0 M29.25 0 C124.6 0, 219.94 0, 397.75 0 M397.75 0 C417.25 0, 427 9.75, 427 29.25 M427 29.25 C427 48.02, 427 66.79, 427 87.75 M427 87.75 C427 107.25, 417.25 117, 397.75 117 M397.75 117 C272.17 117, 146.6 117, 29.25 117 M29.25 117 C9.75 117, 0 107.25, 0 87.75 M0 87.75 C0 74.72, 0 61.69, 0 29.25 M0 29.25 C0 9.75, 9.75 0, 29.25 0" stroke="#1e1e1e" stroke-width="1.5" fill="none" stroke-dasharray="8 9"/></g><g transform="translate(526.2937666100102 162.4840358486528) rotate(0 40 11.5)"><text x="40" y="0" font-family="Helvetica, Segoe UI Emoji" font-size="20px" fill="#1e1e1e" text-anchor="middle" style="white-space: pre;" direction="ltr" dominant-baseline="text-before-edge">公共服务</text></g><g stroke-linecap="round" transform="translate(360.9424298020783 197.2698157648938) rotate(0 59.5 34.5)"><path d="M17.25 0 M17.25 0 C35.32 0, 53.38 0, 101.75 0 M17.25 0 C38.75 0, 60.24 0, 101.75 0 M101.75 0 C113.25 0, 119 5.75, 119 17.25 M101.75 0 C113.25 0, 119 5.75, 119 17.25 M119 17.25 C119 27.56, 119 37.87, 119 51.75 M119 17.25 C119 28.56, 119 39.87, 119 51.75 M119 51.75 C119 63.25, 113.25 69, 101.75 69 M119 51.75 C119 63.25, 113.25 69, 101.75 69 M101.75 69 C83.53 69, 65.32 69, 17.25 69 M101.75 69 C81.89 69, 62.04 69, 17.25 69 M17.25 69 C5.75 69, 0 63.25, 0 51.75 M17.25 69 C5.75 69, 0 63.25, 0 51.75 M0 51.75 C0 39.15, 0 26.55, 0 17.25 M0 51.75 C0 44.41, 0 37.06, 0 17.25 M0 17.25 C0 5.75, 5.75 0, 17.25 0 M0 17.25 C0 5.75, 5.75 0, 17.25 0" stroke="#1e1e1e" stroke-width="1" fill="none"/></g><g transform="translate(400.9893048020783 220.2698157648938) rotate(0 19.453125 11.5)"><text x="19.453125" y="0" font-family="Helvetica, Segoe UI Emoji" font-size="20px" fill="#1e1e1e" text-anchor="middle" style="white-space: pre;" direction="ltr" dominant-baseline="text-before-edge">user</text></g><g stroke-linecap="round" transform="translate(506.85831128230416 197.2698157648938) rotate(0 59.5 34.5)"><path d="M17.25 0 M17.25 0 C43.27 0, 69.29 0, 101.75 0 M17.25 0 C43.87 0, 70.48 0, 101.75 0 M101.75 0 C113.25 0, 119 5.75, 119 17.25 M101.75 0 C113.25 0, 119 5.75, 119 17.25 M119 17.25 C119 26.46, 119 35.68, 119 51.75 M119 17.25 C119 27.6, 119 37.95, 119 51.75 M119 51.75 C119 63.25, 113.25 69, 101.75 69 M119 51.75 C119 63.25, 113.25 69, 101.75 69 M101.75 69 C72.74 69, 43.74 69, 17.25 69 M101.75 69 C73.18 69, 44.61 69, 17.25 69 M17.25 69 C5.75 69, 0 63.25, 0 51.75 M17.25 69 C5.75 69, 0 63.25, 0 51.75 M0 51.75 C0 43.47, 0 35.2, 0 17.25 M0 51.75 C0 38.64, 0 25.53, 0 17.25 M0 17.25 C0 5.75, 5.75 0, 17.25 0 M0 17.25 C0 5.75, 5.75 0, 17.25 0" stroke="#1e1e1e" stroke-width="1" fill="none"/></g><g transform="translate(534.6883894073042 220.2698157648938) rotate(0 31.669921875 11.5)"><text x="31.669921875" y="0" font-family="Helvetica, Segoe UI Emoji" font-size="20px" fill="#1e1e1e" text-anchor="middle" style="white-space: pre;" direction="ltr" dominant-baseline="text-before-edge">system</text></g><g stroke-linecap="round" transform="translate(649.8913225825273 196.39008118063043) rotate(0 59.5 34.5)"><path d="M17.25 0 M17.25 0 C34.86 0, 52.46 0, 101.75 0 M17.25 0 C34.52 0, 51.78 0, 101.75 0 M101.75 0 C113.25 0, 119 5.75, 119 17.25 M101.75 0 C113.25 0, 119 5.75, 119 17.25 M119 17.25 C119 24.58, 119 31.91, 119 51.75 M119 17.25 C119 24.61, 119 31.98, 119 51.75 M119 51.75 C119 63.25, 113.25 69, 101.75 69 M119 51.75 C119 63.25, 113.25 69, 101.75 69 M101.75 69 C73.15 69, 44.54 69, 17.25 69 M101.75 69 C83.78 69, 65.8 69, 17.25 69 M17.25 69 C5.75 69, 0 63.25, 0 51.75 M17.25 69 C5.75 69, 0 63.25, 0 51.75 M0 51.75 C0 38.42, 0 25.1, 0 17.25 M0 51.75 C0 38.93, 0 26.1, 0 17.25 M0 17.25 C0 5.75, 5.75 0, 17.25 0 M0 17.25 C0 5.75, 5.75 0, 17.25 0" stroke="#1e1e1e" stroke-width="1" fill="none"/></g><g transform="translate(670.4850725825273 219.39008118063043) rotate(0 38.90625 11.5)"><text x="38.90625" y="0" font-family="Helvetica, Segoe UI Emoji" font-size="20px" fill="#1e1e1e" text-anchor="middle" style="white-space: pre;" direction="ltr" dominant-baseline="text-before-edge">resource</text></g><g stroke-linecap="round" transform="translate(336.29376661001015 676.342943131211) rotate(0 230 84)"><path d="M32 0 M32 0 C147.05 0, 262.09 0, 428 0 M428 0 C449.33 0, 460 10.67, 460 32 M460 32 C460 69.53, 460 107.07, 460 136 M460 136 C460 157.33, 449.33 168, 428 168 M428 168 C337.76 168, 247.52 168, 32 168 M32 168 C10.67 168, 0 157.33, 0 136 M0 136 C0 99.3, 0 62.6, 0 32 M0 32 C0 10.67, 10.67 0, 32 0" stroke="#1e1e1e" stroke-width="1.5" fill="none" stroke-dasharray="8 9"/></g><g transform="translate(470.73712598501015 816.342943131211) rotate(0 95.556640625 11.5)"><text x="95.556640625" y="0" font-family="Helvetica, Segoe UI Emoji" font-size="20px" fill="#1e1e1e" text-anchor="middle" style="white-space: pre;" direction="ltr" dominant-baseline="text-before-edge">插件, 低代码工具集合</text></g><g stroke-linecap="round" transform="translate(352.6110344085014 702.8445589682649) rotate(0 65.5 42.5)"><path d="M21.25 0 M21.25 0 C55.22 0, 89.19 0, 109.75 0 M21.25 0 C53.19 0, 85.13 0, 109.75 0 M109.75 0 C123.92 0, 131 7.08, 131 21.25 M109.75 0 C123.92 0, 131 7.08, 131 21.25 M131 21.25 C131 37.53, 131 53.81, 131 63.75 M131 21.25 C131 36.25, 131 51.25, 131 63.75 M131 63.75 C131 77.92, 123.92 85, 109.75 85 M131 63.75 C131 77.92, 123.92 85, 109.75 85 M109.75 85 C82.99 85, 56.24 85, 21.25 85 M109.75 85 C88.78 85, 67.81 85, 21.25 85 M21.25 85 C7.08 85, 0 77.92, 0 63.75 M21.25 85 C7.08 85, 0 77.92, 0 63.75 M0 63.75 C0 47.77, 0 31.79, 0 21.25 M0 63.75 C0 47.36, 0 30.97, 0 21.25 M0 21.25 C0 7.08, 7.08 0, 21.25 0 M0 21.25 C0 7.08, 7.08 0, 21.25 0" stroke="#1e1e1e" stroke-width="1" fill="none"/></g><g transform="translate(358.6579094085014 722.3445589682649) rotate(0 59.453125 23)"><text x="59.453125" y="0" font-family="Helvetica, Segoe UI Emoji" font-size="20px" fill="#1e1e1e" text-anchor="middle" style="white-space: pre;" direction="ltr" dominant-baseline="text-before-edge">VO/DO/BO字</text><text x="59.453125" y="23" font-family="Helvetica, Segoe UI Emoji" font-size="20px" fill="#1e1e1e" text-anchor="middle" style="white-space: pre;" direction="ltr" dominant-baseline="text-before-edge">段注入工具</text></g><g stroke-linecap="round" transform="translate(510.22252446485936 702.8445589682649) rotate(0 63 42.5)"><path d="M21.25 0 M21.25 0 C43.01 0, 64.77 0, 104.75 0 M21.25 0 C41.17 0, 61.09 0, 104.75 0 M104.75 0 C118.92 0, 126 7.08, 126 21.25 M104.75 0 C118.92 0, 126 7.08, 126 21.25 M126 21.25 C126 33.3, 126 45.35, 126 63.75 M126 21.25 C126 37.66, 126 54.07, 126 63.75 M126 63.75 C126 77.92, 118.92 85, 104.75 85 M126 63.75 C126 77.92, 118.92 85, 104.75 85 M104.75 85 C86.69 85, 68.63 85, 21.25 85 M104.75 85 C87.66 85, 70.58 85, 21.25 85 M21.25 85 C7.08 85, 0 77.92, 0 63.75 M21.25 85 C7.08 85, 0 77.92, 0 63.75 M0 63.75 C0 52.84, 0 41.94, 0 21.25 M0 63.75 C0 53.65, 0 43.55, 0 21.25 M0 21.25 C0 7.08, 7.08 0, 21.25 0 M0 21.25 C0 7.08, 7.08 0, 21.25 0" stroke="#1e1e1e" stroke-width="1" fill="none"/></g><g transform="translate(523.2225244648594 722.3445589682649) rotate(0 50 23)"><text x="50" y="0" font-family="Helvetica, Segoe UI Emoji" font-size="20px" fill="#1e1e1e" text-anchor="middle" style="white-space: pre;" direction="ltr" dominant-baseline="text-before-edge">中间件适配</text><text x="50" y="23" font-family="Helvetica, Segoe UI Emoji" font-size="20px" fill="#1e1e1e" text-anchor="middle" style="white-space: pre;" direction="ltr" dominant-baseline="text-before-edge">工具</text></g><g stroke-linecap="round" transform="translate(676.8966371799179 702.8445589682649) rotate(0 45.5 42.5)"><path d="M21.25 0 M21.25 0 C32.25 0, 43.25 0, 69.75 0 M21.25 0 C40.14 0, 59.03 0, 69.75 0 M69.75 0 C83.92 0, 91 7.08, 91 21.25 M69.75 0 C83.92 0, 91 7.08, 91 21.25 M91 21.25 C91 37.36, 91 53.47, 91 63.75 M91 21.25 C91 35.91, 91 50.57, 91 63.75 M91 63.75 C91 77.92, 83.92 85, 69.75 85 M91 63.75 C91 77.92, 83.92 85, 69.75 85 M69.75 85 C54.95 85, 40.15 85, 21.25 85 M69.75 85 C55.35 85, 40.96 85, 21.25 85 M21.25 85 C7.08 85, 0 77.92, 0 63.75 M21.25 85 C7.08 85, 0 77.92, 0 63.75 M0 63.75 C0 52.26, 0 40.78, 0 21.25 M0 63.75 C0 52.73, 0 41.72, 0 21.25 M0 21.25 C0 7.08, 7.08 0, 21.25 0 M0 21.25 C0 7.08, 7.08 0, 21.25 0" stroke="#1e1e1e" stroke-width="1" fill="none"/></g><g transform="translate(714.0616762424179 733.8445589682649) rotate(0 8.3349609375 11.5)"><text x="8.3349609375" y="0" font-family="Helvetica, Segoe UI Emoji" font-size="20px" fill="#1e1e1e" text-anchor="middle" style="white-space: pre;" direction="ltr" dominant-baseline="text-before-edge">...</text></g></svg>